<?xml version="1.0" encoding="UTF-8"?>
<!DOCTYPE svg PUBLIC "-//W3C//DTD SVG 1.1//EN" "http://www.w3.org/Graphics/SVG/1.1/DTD/svg11.dtd">
<svg xmlns="http://www.w3.org/2000/svg" version="1.1" width="260px" height="260px" style="shape-rendering:geometricPrecision; text-rendering:geometricPrecision; image-rendering:optimizeQuality; fill-rule:evenodd; clip-rule:evenodd" xmlns:xlink="http://www.w3.org/1999/xlink">
<g><path style="opacity:0.979" fill="#f3f1f0" d="M 113.5,-0.5 C 123.833,-0.5 134.167,-0.5 144.5,-0.5C 147.656,0.433899 150.989,1.10057 154.5,1.5C 156.438,3.16276 158.772,3.82943 161.5,3.5C 163.214,4.73838 165.214,5.40505 167.5,5.5C 171.162,5.7234 174.495,6.7234 177.5,8.5C 179.181,10.0075 181.181,11.0075 183.5,11.5C 186.878,12.0231 189.878,13.3565 192.5,15.5C 193.659,17.2503 195.326,18.2503 197.5,18.5C 198.492,18.3284 199.158,18.6618 199.5,19.5C 199.577,20.7498 200.244,21.5831 201.5,22C 197.697,24.3683 198.03,25.2016 202.5,24.5C 205.318,26.2929 208.318,27.6262 211.5,28.5C 212.167,29.8333 213.167,30.8333 214.5,31.5C 218.12,33.4528 221.12,36.1195 223.5,39.5C 225.094,42.7642 227.427,45.4309 230.5,47.5C 230.738,49.4044 231.738,50.7377 233.5,51.5C 233.738,53.4044 234.738,54.7377 236.5,55.5C 236.427,57.0269 237.094,58.0269 238.5,58.5C 238.427,60.0269 239.094,61.0269 240.5,61.5C 241.338,61.8417 241.672,62.5084 241.5,63.5C 241.427,65.0269 242.094,66.0269 243.5,66.5C 245.592,69.0884 246.925,72.0884 247.5,75.5C 247.66,77.153 248.326,78.4863 249.5,79.5C 249.415,82.6489 250.415,85.3155 252.5,87.5C 253.924,89.5145 254.59,91.8478 254.5,94.5C 254.41,97.1522 255.076,99.4855 256.5,101.5C 257.598,105.909 258.598,110.242 259.5,114.5C 259.5,124.5 259.5,134.5 259.5,144.5C 258.23,151.498 256.564,158.498 254.5,165.5C 251.86,170.085 250.194,175.085 249.5,180.5C 247.896,181.287 247.229,182.62 247.5,184.5C 245.896,185.287 245.229,186.62 245.5,188.5C 245.672,189.492 245.338,190.158 244.5,190.5C 240.19,189.92 235.857,189.586 231.5,189.5C 231.5,189.167 231.5,188.833 231.5,188.5C 232.773,186.287 233.773,183.954 234.5,181.5C 238.565,174.69 241.565,167.357 243.5,159.5C 254.98,121.478 248.314,87.145 223.5,56.5C 219.008,50.842 214.341,45.342 209.5,40C 191.285,24.7252 170.618,14.5585 147.5,9.5C 143.781,7.1593 139.614,5.82596 135,5.5C 131.727,6.65971 128.394,6.65971 125,5.5C 123.105,5.61485 121.438,6.28151 120,7.5C 115.755,6.7295 111.588,5.56284 107.5,4C 110.332,2.09236 109.999,1.25903 106.5,1.5C 108.833,0.833333 111.167,0.166667 113.5,-0.5 Z"/></g>
<g><path style="opacity:0.294" fill="#707371" d="M 154.5,1.5 C 157.067,1.72148 159.401,2.38815 161.5,3.5C 158.772,3.82943 156.438,3.16276 154.5,1.5 Z"/></g>
<g><path style="opacity:0.031" fill="#656766" d="M 161.5,3.5 C 163.898,3.25939 165.898,3.92606 167.5,5.5C 165.214,5.40505 163.214,4.73838 161.5,3.5 Z"/></g>
<g><path style="opacity:0.373" fill="#6e6f6e" d="M 93.5,4.5 C 90.4954,6.2766 87.1621,7.2766 83.5,7.5C 86.5046,5.7234 89.8379,4.7234 93.5,4.5 Z"/></g>
<g><path style="opacity:0.208" fill="#616260" d="M 83.5,7.5 C 81.6796,9.44836 79.3462,10.4484 76.5,10.5C 78.5093,8.93482 80.8427,7.93482 83.5,7.5 Z"/></g>
<g><path style="opacity:0.149" fill="#575757" d="M 177.5,8.5 C 180.089,8.46095 182.089,9.46095 183.5,11.5C 181.181,11.0075 179.181,10.0075 177.5,8.5 Z"/></g>
<g><path style="opacity:1" fill="#7b1918" d="M 138.5,9.5 C 129.459,9.28287 120.459,9.78287 111.5,11C 102.795,12.737 94.1286,14.5703 85.5,16.5C 102.593,9.65518 120.26,7.32185 138.5,9.5 Z"/></g>
<g><path style="opacity:0.31" fill="#636363" d="M 76.5,10.5 C 74.9674,12.2451 72.9674,13.2451 70.5,13.5C 72.0326,11.7549 74.0326,10.7549 76.5,10.5 Z"/></g>
<g><path style="opacity:0.137" fill="#474447" d="M 192.5,15.5 C 194.674,15.7497 196.341,16.7497 197.5,18.5C 195.326,18.2503 193.659,17.2503 192.5,15.5 Z"/></g>
<g><path style="opacity:0.145" fill="#4c4d4b" d="M 64.5,16.5 C 62.8525,18.3264 60.8525,19.6597 58.5,20.5C 59.8021,18.1782 61.8021,16.8449 64.5,16.5 Z"/></g>
<g><path style="opacity:0.125" fill="#52524f" d="M 58.5,20.5 C 56.8525,22.3264 54.8525,23.6597 52.5,24.5C 53.8021,22.1782 55.8021,20.8449 58.5,20.5 Z"/></g>
<g><path style="opacity:1" fill="#fcefcc" d="M 226.5,187.5 C 222.575,187.57 218.909,186.903 215.5,185.5C 215.158,184.662 214.492,184.328 213.5,184.5C 217.735,183.772 219.902,181.105 220,176.5C 221,175.833 222,175.167 223,174.5C 224.548,170.416 226.381,166.416 228.5,162.5C 227.524,160.877 228.024,159.543 230,158.5C 238.345,128.598 235.511,99.9313 221.5,72.5C 220.675,71.6143 219.675,71.281 218.5,71.5C 217.038,67.1825 214.872,63.1825 212,59.5C 208.593,57.8544 205.426,56.521 202.5,55.5C 196.066,50.5691 190.566,44.9024 186,38.5C 184.274,39.5762 182.441,39.7429 180.5,39C 172.413,36.9789 164.913,33.8122 158,29.5C 157.667,29.8333 157.333,30.1667 157,30.5C 153.221,29.4721 149.555,28.1388 146,26.5C 144.366,26.7129 142.866,27.0463 141.5,27.5C 134.473,27.7666 126.639,27.4333 118,26.5C 108.356,29.0852 98.5224,30.9185 88.5,32C 80.2151,35.3655 72.2151,39.1989 64.5,43.5C 63.6143,44.325 63.281,45.325 63.5,46.5C 59.9247,46.4524 57.5914,48.119 56.5,51.5C 53.1472,54.6872 49.6472,57.6872 46,60.5C 45.6667,62.1667 45.3333,63.8333 45,65.5C 41.22,69.2822 38.22,73.6156 36,78.5C 33.846,79.2301 31.6794,79.8968 29.5,80.5C 29.7214,79.2652 30.3881,78.2652 31.5,77.5C 30.6744,76.549 30.5078,75.549 31,74.5C 32.8333,73.3333 34.3333,71.8333 35.5,70C 36.4491,69.3828 37.2825,69.5494 38,70.5C 38.2895,68.0481 38.9562,65.7148 40,63.5C 42.9027,59.5936 46.4027,56.4269 50.5,54C 57.5452,44.3032 66.8785,37.9699 78.5,35C 79.2524,34.3292 79.5858,33.4959 79.5,32.5C 80.896,30.2911 82.896,28.7911 85.5,28C 96.3871,27.1167 107.054,25.45 117.5,23C 118.126,22.2496 118.626,21.4162 119,20.5C 129.006,20.9461 139.173,21.6128 149.5,22.5C 153.259,24.4084 157.092,25.075 161,24.5C 167.646,27.3833 174.479,29.8833 181.5,32C 191.7,40.5868 202.033,48.9201 212.5,57C 214.219,58.8705 215.219,61.0372 215.5,63.5C 216.822,63.33 217.989,63.6634 219,64.5C 219.844,67.678 221.511,70.3446 224,72.5C 224.49,73.7932 224.657,75.1266 224.5,76.5C 226.993,76.9762 228.993,78.3096 230.5,80.5C 231.838,84.8359 233.172,89.1692 234.5,93.5C 234.291,94.086 233.957,94.586 233.5,95C 244.132,120.302 242.799,144.969 229.5,169C 230.022,169.95 230.689,170.784 231.5,171.5C 230.626,173.747 230.292,176.08 230.5,178.5C 229.5,178.5 228.5,178.5 227.5,178.5C 227.738,174.901 226.738,174.567 224.5,177.5C 223.978,178.607 223.645,179.774 223.5,181C 224.166,182.669 224.166,184.169 223.5,185.5C 224.602,186.176 225.602,186.842 226.5,187.5 Z"/></g>
<g><path style="opacity:1" fill="#901914" d="M 138.5,9.5 C 141.5,9.5 144.5,9.5 147.5,9.5C 170.618,14.5585 191.285,24.7252 209.5,40C 214.341,45.342 219.008,50.842 223.5,56.5C 224.929,59.439 226.595,62.2724 228.5,65C 228.333,65.5 228.167,66 228,66.5C 227.124,64.3645 225.624,63.0312 223.5,62.5C 184.866,15.5787 136.866,2.74537 79.5,24C 73.9543,26.604 68.621,29.4373 63.5,32.5C 56.8228,35.6747 56.1562,34.8414 61.5,30C 63.7148,28.9562 66.0481,28.2895 68.5,28C 72.1576,24.8356 75.8243,21.6689 79.5,18.5C 81.4214,17.6373 83.4214,16.9707 85.5,16.5C 94.1286,14.5703 102.795,12.737 111.5,11C 120.459,9.78287 129.459,9.28287 138.5,9.5 Z"/></g>
<g><path style="opacity:0.973" fill="#bfbebd" d="M 199.5,19.5 C 203.896,22.0251 207.896,25.0251 211.5,28.5C 208.318,27.6262 205.318,26.2929 202.5,24.5C 198.03,25.2016 197.697,24.3683 201.5,22C 200.244,21.5831 199.577,20.7498 199.5,19.5 Z"/></g>
<g><path style="opacity:0.576" fill="#7b7978" d="M 52.5,24.5 C 51.4154,26.5869 49.7488,27.9202 47.5,28.5C 48.5846,26.4131 50.2512,25.0798 52.5,24.5 Z"/></g>
<g><path style="opacity:0.012" fill="#3f403f" d="M 211.5,28.5 C 213.5,28.5 214.5,29.5 214.5,31.5C 213.167,30.8333 212.167,29.8333 211.5,28.5 Z"/></g>
<g><path style="opacity:0.62" fill="#838685" d="M 47.5,28.5 C 45.1002,31.9031 42.1002,34.5698 38.5,36.5C 40.8998,33.0969 43.8998,30.4302 47.5,28.5 Z"/></g>
<g><path style="opacity:1" fill="#fdf6e4" d="M 213.5,184.5 C 214.492,184.328 215.158,184.662 215.5,185.5C 210.269,185.556 205.269,184.889 200.5,183.5C 202.527,183.662 204.527,183.495 206.5,183C 204.027,181.598 204.027,180.098 206.5,178.5C 206.291,177.914 205.957,177.414 205.5,177C 207.38,177.51 209.213,177.343 211,176.5C 214.134,169.121 217.467,161.787 221,154.5C 226.022,137.646 226.688,120.646 223,103.5C 222.333,102.833 221.667,102.167 221,101.5C 220.654,98.4245 219.988,95.4245 219,92.5C 214.688,85.7018 210.855,78.7018 207.5,71.5C 204.074,67.5247 200.741,63.3581 197.5,59C 192.322,55.5776 187.322,51.911 182.5,48C 172.753,43.6484 163.086,39.315 153.5,35C 150.532,34.8305 147.699,34.6638 145,34.5C 143.192,36.3959 141.025,36.8959 138.5,36C 139.938,35.7811 141.271,35.2811 142.5,34.5C 142.376,33.8933 142.043,33.56 141.5,33.5C 142.878,32.7656 144.378,32.0989 146,31.5C 157.978,35.8674 170.145,39.3674 182.5,42C 183.817,43.6591 185.483,44.8257 187.5,45.5C 189.535,50.7586 193.201,54.2586 198.5,56C 208.482,64.9943 216.648,75.4943 223,87.5C 225.599,95.0457 227.932,102.712 230,110.5C 230.667,121.167 230.667,131.833 230,142.5C 227.619,150.565 225.286,158.565 223,166.5C 219.773,170.558 217.106,174.891 215,179.5C 213.421,181.041 211.587,182.208 209.5,183C 210.901,183.41 212.234,183.91 213.5,184.5 Z"/></g>
<g><path style="opacity:0.494" fill="#5d5d5d" d="M 223.5,39.5 C 226.573,41.5691 228.906,44.2358 230.5,47.5C 227.427,45.4309 225.094,42.7642 223.5,39.5 Z"/></g>
<g><path style="opacity:0.333" fill="#595a59" d="M 31.5,43.5 C 31.2624,45.4044 30.2624,46.7377 28.5,47.5C 28.7376,45.5956 29.7376,44.2623 31.5,43.5 Z"/></g>
<g><path style="opacity:1" fill="#fae9be" d="M 79.5,32.5 C 79.5858,33.4959 79.2524,34.3292 78.5,35C 66.8785,37.9699 57.5452,44.3032 50.5,54C 46.4027,56.4269 42.9027,59.5936 40,63.5C 38.9562,65.7148 38.2895,68.0481 38,70.5C 37.2825,69.5494 36.4491,69.3828 35.5,70C 34.3333,71.8333 32.8333,73.3333 31,74.5C 30.5078,75.549 30.6744,76.549 31.5,77.5C 30.3881,78.2652 29.7214,79.2652 29.5,80.5C 26.7622,83.9055 24.4288,87.5721 22.5,91.5C 21.2309,93.6948 21.2309,95.8615 22.5,98C 21.2735,102.908 19.7735,107.741 18,112.5C 17.3333,122.5 17.3333,132.5 18,142.5C 19.6328,145.681 20.9661,149.014 22,152.5C 22.7903,158.26 23.9569,163.593 25.5,168.5C 25.5,168.833 25.5,169.167 25.5,169.5C 23.9291,171.635 22.5957,173.968 21.5,176.5C 16.8545,165.935 13.8545,154.935 12.5,143.5C 9.303,109.599 18.4697,79.5995 40,53.5C 44.0738,48.9207 48.5738,44.9207 53.5,41.5C 55.736,40.6109 57.736,39.2776 59.5,37.5C 60.1667,37.8333 60.8333,38.1667 61.5,38.5C 64.1092,37.7695 66.7759,37.2695 69.5,37C 72.2283,34.1355 75.5617,32.6355 79.5,32.5 Z"/></g>
<g><path style="opacity:1" fill="#fdfaf1" d="M 207.5,71.5 C 210.855,78.7018 214.688,85.7018 219,92.5C 219.988,95.4245 220.654,98.4245 221,101.5C 221.667,102.167 222.333,102.833 223,103.5C 226.688,120.646 226.022,137.646 221,154.5C 217.467,161.787 214.134,169.121 211,176.5C 209.213,177.343 207.38,177.51 205.5,177C 205.957,177.414 206.291,177.914 206.5,178.5C 204.027,180.098 204.027,181.598 206.5,183C 204.527,183.495 202.527,183.662 200.5,183.5C 200.672,182.508 200.338,181.842 199.5,181.5C 199.528,175.585 198.861,169.752 197.5,164C 197.667,162.5 197.833,161 198,159.5C 198.383,158.944 198.883,158.611 199.5,158.5C 199.575,163.952 200.409,169.286 202,174.5C 202.741,173.359 203.575,173.359 204.5,174.5C 210.72,169.081 215.22,162.414 218,154.5C 219.207,149.878 220.207,145.211 221,140.5C 221.333,141.167 221.667,141.833 222,142.5C 223.516,132.134 223.516,121.801 222,111.5C 221.395,109.519 220.395,109.185 219,110.5C 217.414,109.624 215.914,108.624 214.5,107.5C 214.559,103.126 214.059,98.7926 213,94.5C 211.413,91.2441 208.913,89.0774 205.5,88C 206.5,87.6667 207.5,87.3333 208.5,87C 207.91,85.4905 207.244,83.9905 206.5,82.5C 205.575,83.6405 204.741,83.6405 204,82.5C 203.2,78.3602 200.867,75.3602 197,73.5C 195.765,68.7102 192.932,66.7102 188.5,67.5C 186.55,64.5954 184.884,61.5954 183.5,58.5C 180.346,58.3406 177.846,57.0072 176,54.5C 174.493,55.5348 172.993,55.3681 171.5,54C 169.161,49.2604 166.494,48.7604 163.5,52.5C 147.929,41.1218 130.595,37.4551 111.5,41.5C 110.022,41.762 108.689,41.4287 107.5,40.5C 106.359,39.5745 106.359,38.7412 107.5,38C 124.202,37.1094 140.869,37.4427 157.5,39C 156.833,40.3333 155.833,41.3333 154.5,42C 156.735,43.9942 158.901,43.8276 161,41.5C 167.022,43.4303 172.856,45.7636 178.5,48.5C 183.977,53.4063 189.977,57.5729 196.5,61C 199.407,64.1508 202.074,67.4841 204.5,71C 205.448,71.4828 206.448,71.6495 207.5,71.5 Z"/></g>
<g><path style="opacity:0.412" fill="#666160" d="M 230.5,47.5 C 232.262,48.2623 233.262,49.5956 233.5,51.5C 231.738,50.7377 230.738,49.4044 230.5,47.5 Z"/></g>
<g><path style="opacity:1" fill="#8b1e18" d="M 79.5,18.5 C 75.8243,21.6689 72.1576,24.8356 68.5,28C 66.0481,28.2895 63.7148,28.9562 61.5,30C 56.1562,34.8414 56.8228,35.6747 63.5,32.5C 59.7893,35.0317 56.456,38.0317 53.5,41.5C 48.5738,44.9207 44.0738,48.9207 40,53.5C 18.4697,79.5995 9.303,109.599 12.5,143.5C 12.7845,145.415 12.4511,147.081 11.5,148.5C 3.98907,98.7116 20.3224,58.8783 60.5,29C 66.5979,24.9537 72.9312,21.4537 79.5,18.5 Z"/></g>
<g><path style="opacity:1" fill="#fdf9f7" d="M 199.5,158.5 C 217.593,142.714 221.093,124.047 210,102.5C 203.364,93.4305 194.53,87.7638 183.5,85.5C 179.636,72.7677 172.97,61.7677 163.5,52.5C 166.494,48.7604 169.161,49.2604 171.5,54C 172.993,55.3681 174.493,55.5348 176,54.5C 177.846,57.0072 180.346,58.3406 183.5,58.5C 184.884,61.5954 186.55,64.5954 188.5,67.5C 192.932,66.7102 195.765,68.7102 197,73.5C 200.867,75.3602 203.2,78.3602 204,82.5C 204.741,83.6405 205.575,83.6405 206.5,82.5C 207.244,83.9905 207.91,85.4905 208.5,87C 207.5,87.3333 206.5,87.6667 205.5,88C 208.913,89.0774 211.413,91.2441 213,94.5C 214.059,98.7926 214.559,103.126 214.5,107.5C 215.914,108.624 217.414,109.624 219,110.5C 220.395,109.185 221.395,109.519 222,111.5C 223.516,121.801 223.516,132.134 222,142.5C 221.667,141.833 221.333,141.167 221,140.5C 220.207,145.211 219.207,149.878 218,154.5C 215.22,162.414 210.72,169.081 204.5,174.5C 203.575,173.359 202.741,173.359 202,174.5C 200.409,169.286 199.575,163.952 199.5,158.5 Z"/></g>
<g><path style="opacity:0.259" fill="#626162" d="M 28.5,47.5 C 27.9202,49.7488 26.5869,51.4154 24.5,52.5C 25.0798,50.2512 26.4131,48.5846 28.5,47.5 Z"/></g>
<g><path style="opacity:0.231" fill="#5f6260" d="M 233.5,51.5 C 235.262,52.2623 236.262,53.5956 236.5,55.5C 234.738,54.7377 233.738,53.4044 233.5,51.5 Z"/></g>
<g><path style="opacity:0.212" fill="#565656" d="M 24.5,52.5 C 23.6597,54.8525 22.3264,56.8525 20.5,58.5C 20.8449,55.8021 22.1782,53.8021 24.5,52.5 Z"/></g>
<g><path style="opacity:0.959" fill="#f6f2f1" d="M 106.5,1.5 C 109.999,1.25903 110.332,2.09236 107.5,4C 111.588,5.56284 115.755,6.7295 120,7.5C 121.438,6.28151 123.105,5.61485 125,5.5C 128.394,6.65971 131.727,6.65971 135,5.5C 139.614,5.82596 143.781,7.1593 147.5,9.5C 144.5,9.5 141.5,9.5 138.5,9.5C 120.26,7.32185 102.593,9.65518 85.5,16.5C 83.4214,16.9707 81.4214,17.6373 79.5,18.5C 72.9312,21.4537 66.5979,24.9537 60.5,29C 20.3224,58.8783 3.98907,98.7116 11.5,148.5C 13.2132,161.053 17.2132,172.719 23.5,183.5C 24.0787,186.331 25.412,188.664 27.5,190.5C 27.8333,191.833 28.1667,193.167 28.5,194.5C 25.9333,195.475 23.2666,196.142 20.5,196.5C 18.2911,195.08 16.2911,193.413 14.5,191.5C 14.5,191.167 14.5,190.833 14.5,190.5C 14.3404,188.847 13.6737,187.514 12.5,186.5C 11.9251,183.088 10.5918,180.088 8.5,177.5C 6.98023,175.11 5.98023,172.443 5.5,169.5C 5.70621,166.505 5.03954,163.838 3.5,161.5C 3.82943,158.772 3.16276,156.438 1.5,154.5C 0.973568,150.688 0.306901,147.021 -0.5,143.5C -0.5,133.167 -0.5,122.833 -0.5,112.5C 0.166667,112.5 0.5,112.167 0.5,111.5C 1.6874,108.054 2.35407,104.387 2.5,100.5C 3.92381,98.4855 4.59047,96.1522 4.5,93.5C 5.92381,91.4855 6.59047,89.1522 6.5,86.5C 6.97065,84.4214 7.63732,82.4214 8.5,80.5C 10.7705,78.3877 12.1039,75.721 12.5,72.5C 12.5,72.1667 12.5,71.8333 12.5,71.5C 13.9063,71.0269 14.573,70.0269 14.5,68.5C 14.6596,66.847 15.3263,65.5137 16.5,64.5C 17.9063,64.0269 18.573,63.0269 18.5,61.5C 19.9063,61.0269 20.573,60.0269 20.5,58.5C 22.3264,56.8525 23.6597,54.8525 24.5,52.5C 26.5869,51.4154 27.9202,49.7488 28.5,47.5C 30.2624,46.7377 31.2624,45.4044 31.5,43.5C 33.5272,40.8061 35.8605,38.4728 38.5,36.5C 42.1002,34.5698 45.1002,31.9031 47.5,28.5C 49.7488,27.9202 51.4154,26.5869 52.5,24.5C 54.8525,23.6597 56.8525,22.3264 58.5,20.5C 60.8525,19.6597 62.8525,18.3264 64.5,16.5C 66.1815,14.9925 68.1815,13.9925 70.5,13.5C 72.9674,13.2451 74.9674,12.2451 76.5,10.5C 79.3462,10.4484 81.6796,9.44836 83.5,7.5C 87.1621,7.2766 90.4954,6.2766 93.5,4.5C 97.5465,2.74025 101.88,1.74025 106.5,1.5 Z"/></g>
<g><path style="opacity:0.271" fill="#5c5f5e" d="M 236.5,55.5 C 237.906,55.9731 238.573,56.9731 238.5,58.5C 237.094,58.0269 236.427,57.0269 236.5,55.5 Z"/></g>
<g><path style="opacity:1" fill="#fae8bc" d="M 223.5,62.5 C 245.076,91.7135 251.409,124.047 242.5,159.5C 239.659,166.683 236.992,174.016 234.5,181.5C 233.504,181.586 232.671,181.252 232,180.5C 232.984,182.598 232.651,184.598 231,186.5C 229.989,187.337 228.822,187.67 227.5,187.5C 227.167,187.5 226.833,187.5 226.5,187.5C 225.602,186.842 224.602,186.176 223.5,185.5C 224.166,184.169 224.166,182.669 223.5,181C 223.645,179.774 223.978,178.607 224.5,177.5C 226.738,174.567 227.738,174.901 227.5,178.5C 228.5,178.5 229.5,178.5 230.5,178.5C 230.292,176.08 230.626,173.747 231.5,171.5C 230.689,170.784 230.022,169.95 229.5,169C 242.799,144.969 244.132,120.302 233.5,95C 233.957,94.586 234.291,94.086 234.5,93.5C 233.172,89.1692 231.838,84.8359 230.5,80.5C 228.993,78.3096 226.993,76.9762 224.5,76.5C 224.657,75.1266 224.49,73.7932 224,72.5C 221.511,70.3446 219.844,67.678 219,64.5C 217.989,63.6634 216.822,63.33 215.5,63.5C 215.219,61.0372 214.219,58.8705 212.5,57C 202.033,48.9201 191.7,40.5868 181.5,32C 174.479,29.8833 167.646,27.3833 161,24.5C 157.092,25.075 153.259,24.4084 149.5,22.5C 139.173,21.6128 129.006,20.9461 119,20.5C 118.626,21.4162 118.126,22.2496 117.5,23C 107.054,25.45 96.3871,27.1167 85.5,28C 82.896,28.7911 80.896,30.2911 79.5,32.5C 75.5617,32.6355 72.2283,34.1355 69.5,37C 66.7759,37.2695 64.1092,37.7695 61.5,38.5C 60.8333,38.1667 60.1667,37.8333 59.5,37.5C 57.736,39.2776 55.736,40.6109 53.5,41.5C 56.456,38.0317 59.7893,35.0317 63.5,32.5C 68.621,29.4373 73.9543,26.604 79.5,24C 136.866,2.74537 184.866,15.5787 223.5,62.5 Z"/></g>
<g><path style="opacity:0.251" fill="#616360" d="M 20.5,58.5 C 20.573,60.0269 19.9063,61.0269 18.5,61.5C 18.427,59.9731 19.0937,58.9731 20.5,58.5 Z"/></g>
<g><path style="opacity:0.133" fill="#484a49" d="M 238.5,58.5 C 239.906,58.9731 240.573,59.9731 240.5,61.5C 239.094,61.0269 238.427,60.0269 238.5,58.5 Z"/></g>
<g><path style="opacity:0.18" fill="#535051" d="M 18.5,61.5 C 18.573,63.0269 17.9063,64.0269 16.5,64.5C 16.427,62.9731 17.0937,61.9731 18.5,61.5 Z"/></g>
<g><path style="opacity:1" fill="#fcf1d4" d="M 141.5,27.5 C 141.918,28.2216 142.584,28.7216 143.5,29C 137.313,29.6765 131.146,29.5098 125,28.5C 120.767,28.7574 116.767,29.7574 113,31.5C 112.275,30.9415 111.442,30.6082 110.5,30.5C 106.615,31.55 102.948,33.05 99.5,35C 97.765,35.6514 96.0983,35.4847 94.5,34.5C 89.9352,36.6166 85.2685,38.4499 80.5,40C 76.9464,41.2693 73.9464,43.2693 71.5,46C 69.2852,47.0438 66.9519,47.7105 64.5,48C 56.2454,55.918 48.412,64.0847 41,72.5C 40.0266,74.3921 39.3599,76.3921 39,78.5C 38,79.1667 37,79.8333 36,80.5C 25.0699,102.936 22.0699,126.603 27,151.5C 27.7246,153.949 28.7246,156.283 30,158.5C 30.704,156.273 31.8706,155.94 33.5,157.5C 33.1667,158.167 32.8333,158.833 32.5,159.5C 29.9362,162.28 27.6029,165.28 25.5,168.5C 23.9569,163.593 22.7903,158.26 22,152.5C 20.9661,149.014 19.6328,145.681 18,142.5C 17.3333,132.5 17.3333,122.5 18,112.5C 19.7735,107.741 21.2735,102.908 22.5,98C 21.2309,95.8615 21.2309,93.6948 22.5,91.5C 24.4288,87.5721 26.7622,83.9055 29.5,80.5C 31.6794,79.8968 33.846,79.2301 36,78.5C 38.22,73.6156 41.22,69.2822 45,65.5C 45.3333,63.8333 45.6667,62.1667 46,60.5C 49.6472,57.6872 53.1472,54.6872 56.5,51.5C 57.5914,48.119 59.9247,46.4524 63.5,46.5C 63.281,45.325 63.6143,44.325 64.5,43.5C 72.2151,39.1989 80.2151,35.3655 88.5,32C 98.5224,30.9185 108.356,29.0852 118,26.5C 126.639,27.4333 134.473,27.7666 141.5,27.5 Z"/></g>
<g><path style="opacity:0.125" fill="#525252" d="M 241.5,63.5 C 242.906,63.9731 243.573,64.9731 243.5,66.5C 242.094,66.0269 241.427,65.0269 241.5,63.5 Z"/></g>
<g><path style="opacity:0.102" fill="#383838" d="M 14.5,68.5 C 14.573,70.0269 13.9063,71.0269 12.5,71.5C 12.427,69.9731 13.0937,68.9731 14.5,68.5 Z"/></g>
<g><path style="opacity:0.184" fill="#565555" d="M 12.5,72.5 C 12.1039,75.721 10.7705,78.3877 8.5,80.5C 9.27938,77.4553 10.6127,74.7886 12.5,72.5 Z"/></g>
<g><path style="opacity:1" fill="#861f18" d="M 223.5,56.5 C 248.314,87.145 254.98,121.478 243.5,159.5C 243.167,159.5 242.833,159.5 242.5,159.5C 251.409,124.047 245.076,91.7135 223.5,62.5C 225.624,63.0312 227.124,64.3645 228,66.5C 228.167,66 228.333,65.5 228.5,65C 226.595,62.2724 224.929,59.439 223.5,56.5 Z"/></g>
<g><path style="opacity:0.094" fill="#535353" d="M 247.5,75.5 C 249.104,76.287 249.771,77.6203 249.5,79.5C 248.326,78.4863 247.66,77.153 247.5,75.5 Z"/></g>
<g><path style="opacity:0.463" fill="#848583" d="M 249.5,79.5 C 251.267,81.7916 252.267,84.4582 252.5,87.5C 250.415,85.3155 249.415,82.6489 249.5,79.5 Z"/></g>
<g><path style="opacity:0.38" fill="#6c706c" d="M 6.5,86.5 C 6.59047,89.1522 5.92381,91.4855 4.5,93.5C 4.40953,90.8478 5.07619,88.5145 6.5,86.5 Z"/></g>
<g><path style="opacity:0.204" fill="#696c69" d="M 4.5,93.5 C 4.59047,96.1522 3.92381,98.4855 2.5,100.5C 2.40953,97.8478 3.07619,95.5145 4.5,93.5 Z"/></g>
<g><path style="opacity:0.204" fill="#747171" d="M 254.5,94.5 C 255.924,96.5145 256.59,98.8478 256.5,101.5C 255.076,99.4855 254.41,97.1522 254.5,94.5 Z"/></g>
<g><path style="opacity:0.145" fill="#484a4b" d="M 2.5,100.5 C 2.35407,104.387 1.6874,108.054 0.5,111.5C 0.251076,107.542 0.917743,103.876 2.5,100.5 Z"/></g>
<g><path style="opacity:1" fill="#fbf5f3" d="M 175.5,114.5 C 175.105,117.523 176.105,118.523 178.5,117.5C 179.518,118.193 180.518,118.859 181.5,119.5C 181.5,121.167 181.5,122.833 181.5,124.5C 181.561,126.592 182.561,128.092 184.5,129C 186.443,128.695 188.443,128.695 190.5,129C 193.56,135.393 191.894,140.226 185.5,143.5C 186.243,144.182 186.909,144.849 187.5,145.5C 187.5,148.167 187.5,150.833 187.5,153.5C 185.43,153.551 183.597,152.885 182,151.5C 179.901,152.287 177.734,152.62 175.5,152.5C 174.584,152.018 173.584,151.685 172.5,151.5C 167.959,153.18 163.293,154.347 158.5,155C 162.5,155.333 166.5,155.667 170.5,156C 170.833,156.333 171.167,156.667 171.5,157C 168.5,157.333 165.5,157.667 162.5,158C 170.338,158.505 177.172,161.339 183,166.5C 184.826,165.99 184.993,165.156 183.5,164C 180.274,161.933 176.94,160.1 173.5,158.5C 175.246,156.748 177.246,155.415 179.5,154.5C 181.903,154.448 184.236,154.781 186.5,155.5C 189.503,156.418 192.337,157.751 195,159.5C 195.496,161.035 195.33,162.535 194.5,164C 197.175,169.873 198.508,176.04 198.5,182.5C 196.95,183.72 195.284,183.72 193.5,182.5C 187.134,175.803 180.134,169.803 172.5,164.5C 177.105,171.583 183.438,177.416 191.5,182C 187.848,182.499 184.182,182.665 180.5,182.5C 177.023,181.677 173.356,181.177 169.5,181C 172.607,179.309 175.941,178.142 179.5,177.5C 172.049,171.048 164.049,165.381 155.5,160.5C 156.381,159.029 157.714,158.196 159.5,158C 157.34,156.668 155.34,155.168 153.5,153.5C 152.5,151.5 151.5,149.5 150.5,147.5C 150.198,144.941 150.532,142.607 151.5,140.5C 150.319,138.014 150.652,135.68 152.5,133.5C 150.732,126.81 152.732,121.477 158.5,117.5C 162.411,117.065 166.078,116.065 169.5,114.5C 171.653,113.427 173.653,113.427 175.5,114.5 Z"/></g>
<g><path style="opacity:1" fill="#6d2021" d="M 183.5,85.5 C 194.53,87.7638 203.364,93.4305 210,102.5C 221.093,124.047 217.593,142.714 199.5,158.5C 198.883,158.611 198.383,158.944 198,159.5C 197.833,161 197.667,162.5 197.5,164C 198.861,169.752 199.528,175.585 199.5,181.5C 199.5,182.167 199.167,182.5 198.5,182.5C 198.508,176.04 197.175,169.873 194.5,164C 195.33,162.535 195.496,161.035 195,159.5C 192.337,157.751 189.503,156.418 186.5,155.5C 187.671,154.655 189.005,153.989 190.5,153.5C 192.47,156.313 195.137,157.48 198.5,157C 214.556,142.942 218.39,126.109 210,106.5C 203.474,96.1319 194.307,89.4652 182.5,86.5C 182.5,85.8333 182.833,85.5 183.5,85.5 Z"/></g>
<g><path style="opacity:1" fill="#970e11" d="M 150.5,147.5 C 151.5,149.5 152.5,151.5 153.5,153.5C 153.894,154.967 154.227,156.467 154.5,158C 154.612,159.662 153.946,160.829 152.5,161.5C 151.547,159.092 150.213,156.925 148.5,155C 146.011,154.059 144.011,154.559 142.5,156.5C 140.895,157.006 140.561,157.673 141.5,158.5C 141.5,159.167 141.167,159.5 140.5,159.5C 138.847,159.34 137.514,158.674 136.5,157.5C 136.5,155.5 136.5,153.5 136.5,151.5C 139.167,151.5 141.833,151.5 144.5,151.5C 144.784,149.585 144.451,147.919 143.5,146.5C 141.031,145.683 138.365,145.183 135.5,145C 143.426,144.672 147.426,140.505 147.5,132.5C 148.75,132.423 149.583,131.756 150,130.5C 149.417,136.317 149.584,141.984 150.5,147.5 Z"/></g>
<g><path style="opacity:1" fill="#faebea" d="M 116.5,143.5 C 116.5,144.5 116.5,145.5 116.5,146.5C 112,148.583 107.666,150.916 103.5,153.5C 99.1892,154.464 96.1892,152.964 94.5,149C 85.0841,144.806 75.4174,141.306 65.5,138.5C 63.3911,138.775 62.0578,139.942 61.5,142C 62.473,144.12 63.8064,145.953 65.5,147.5C 68.5847,143.215 72.2514,142.549 76.5,145.5C 78.0248,147.216 79.0248,149.216 79.5,151.5C 78.5272,150.209 77.5272,150.209 76.5,151.5C 75.5854,149.082 74.0854,147.082 72,145.5C 69.3666,147.741 66.5333,149.741 63.5,151.5C 64.3128,152.814 65.3128,153.981 66.5,155C 65.3659,156.016 65.6992,156.683 67.5,157C 66.7476,157.671 66.4142,158.504 66.5,159.5C 65.8333,159.167 65.1667,158.833 64.5,158.5C 63.5371,155.256 62.2038,152.256 60.5,149.5C 59.9278,147.745 59.0945,146.078 58,144.5C 57.2871,139.206 59.6204,136.206 65,135.5C 75.0816,137.479 84.9149,140.312 94.5,144C 96.432,146.655 98.7653,148.322 101.5,149C 104.789,147.923 105.289,146.09 103,143.5C 99.7852,141.539 96.2852,140.373 92.5,140C 91.6634,138.989 91.33,137.822 91.5,136.5C 100.604,136.523 108.938,138.856 116.5,143.5 Z"/></g>
<g><path style="opacity:1" fill="#fdf9f9" d="M 79.5,151.5 C 87.8401,159.21 97.1734,160.544 107.5,155.5C 109.717,154.631 112.05,154.298 114.5,154.5C 115.511,158.856 117.344,162.856 120,166.5C 125.938,169.945 131.438,173.945 136.5,178.5C 133.5,179.167 130.5,179.833 127.5,180.5C 119.271,180.178 111.271,180.845 103.5,182.5C 99.6924,182.837 96.0257,182.337 92.5,181C 85.8333,176.333 79.1667,171.667 72.5,167C 70.6664,164.337 68.6664,161.837 66.5,159.5C 66.4142,158.504 66.7476,157.671 67.5,157C 65.6992,156.683 65.3659,156.016 66.5,155C 65.3128,153.981 64.3128,152.814 63.5,151.5C 66.5333,149.741 69.3666,147.741 72,145.5C 74.0854,147.082 75.5854,149.082 76.5,151.5C 77.5272,150.209 78.5272,150.209 79.5,151.5 Z"/></g>
<g><path style="opacity:1" fill="#fcf5f4" d="M 136.5,157.5 C 137.514,158.674 138.847,159.34 140.5,159.5C 142.899,160.792 145.066,162.459 147,164.5C 153.458,161.187 159.124,162.187 164,167.5C 164.808,169.579 164.641,171.579 163.5,173.5C 156.223,178.027 148.889,178.361 141.5,174.5C 137.72,171.758 134.053,168.758 130.5,165.5C 130.167,165.667 129.833,165.833 129.5,166C 132.505,169.819 136.172,172.653 140.5,174.5C 141.945,176.063 143.611,177.396 145.5,178.5C 145.158,179.338 144.492,179.672 143.5,179.5C 136.327,173.832 128.993,168.332 121.5,163C 118.031,160.71 116.031,157.544 115.5,153.5C 115.5,152.833 115.833,152.5 116.5,152.5C 117.222,152.918 117.722,153.584 118,154.5C 118.333,152.833 118.667,151.167 119,149.5C 119.811,150.96 120.645,151.293 121.5,150.5C 120.05,149.15 119.383,147.484 119.5,145.5C 121.484,145.383 123.15,146.05 124.5,147.5C 124.833,147.333 125.167,147.167 125.5,147C 124.5,146 123.5,145 122.5,144C 123.025,143.308 123.692,142.808 124.5,142.5C 126.332,143.248 127.999,144.248 129.5,145.5C 130.524,144.147 131.857,143.48 133.5,143.5C 133.973,148.387 134.973,153.054 136.5,157.5 Z"/></g>
<g><path style="opacity:1" fill="#fdf4db" d="M 213.5,184.5 C 212.234,183.91 210.901,183.41 209.5,183C 211.587,182.208 213.421,181.041 215,179.5C 217.106,174.891 219.773,170.558 223,166.5C 225.286,158.565 227.619,150.565 230,142.5C 230.667,131.833 230.667,121.167 230,110.5C 227.932,102.712 225.599,95.0457 223,87.5C 216.648,75.4943 208.482,64.9943 198.5,56C 193.201,54.2586 189.535,50.7586 187.5,45.5C 185.483,44.8257 183.817,43.6591 182.5,42C 170.145,39.3674 157.978,35.8674 146,31.5C 144.378,32.0989 142.878,32.7656 141.5,33.5C 134.51,34.7526 127.51,34.7526 120.5,33.5C 111.965,34.0996 103.631,35.5996 95.5,38C 87.9537,41.7732 80.9537,45.2732 74.5,48.5C 67.0453,53.1313 60.212,58.4646 54,64.5C 50.0285,69.8117 46.0285,75.145 42,80.5C 39.5945,87.4974 36.5945,94.1641 33,100.5C 31.9266,104.084 31.2599,107.75 31,111.5C 30.5,112 30,112.5 29.5,113C 29.2139,123.142 29.7139,133.308 31,143.5C 31.4419,145.679 32.4419,146.345 34,145.5C 34.7249,148.377 34.2249,151.043 32.5,153.5C 33.1272,154.417 33.4606,155.417 33.5,156.5C 33.5,156.833 33.5,157.167 33.5,157.5C 31.8706,155.94 30.704,156.273 30,158.5C 28.7246,156.283 27.7246,153.949 27,151.5C 22.0699,126.603 25.0699,102.936 36,80.5C 37,79.8333 38,79.1667 39,78.5C 39.3599,76.3921 40.0266,74.3921 41,72.5C 48.412,64.0847 56.2454,55.918 64.5,48C 66.9519,47.7105 69.2852,47.0438 71.5,46C 73.9464,43.2693 76.9464,41.2693 80.5,40C 85.2685,38.4499 89.9352,36.6166 94.5,34.5C 96.0983,35.4847 97.765,35.6514 99.5,35C 102.948,33.05 106.615,31.55 110.5,30.5C 111.442,30.6082 112.275,30.9415 113,31.5C 116.767,29.7574 120.767,28.7574 125,28.5C 131.146,29.5098 137.313,29.6765 143.5,29C 142.584,28.7216 141.918,28.2216 141.5,27.5C 142.866,27.0463 144.366,26.7129 146,26.5C 149.555,28.1388 153.221,29.4721 157,30.5C 157.333,30.1667 157.667,29.8333 158,29.5C 164.913,33.8122 172.413,36.9789 180.5,39C 182.441,39.7429 184.274,39.5762 186,38.5C 190.566,44.9024 196.066,50.5691 202.5,55.5C 205.426,56.521 208.593,57.8544 212,59.5C 214.872,63.1825 217.038,67.1825 218.5,71.5C 219.675,71.281 220.675,71.6143 221.5,72.5C 235.511,99.9313 238.345,128.598 230,158.5C 228.024,159.543 227.524,160.877 228.5,162.5C 226.381,166.416 224.548,170.416 223,174.5C 222,175.167 221,175.833 220,176.5C 219.902,181.105 217.735,183.772 213.5,184.5 Z"/></g>
<g><path style="opacity:1" fill="#851616" d="M 103.5,153.5 C 101.881,155.238 99.8805,155.738 97.5,155C 91.912,149.37 85.2454,145.537 77.5,143.5C 76.7025,143.957 76.3691,144.624 76.5,145.5C 72.2514,142.549 68.5847,143.215 65.5,147.5C 63.8064,145.953 62.473,144.12 61.5,142C 62.0578,139.942 63.3911,138.775 65.5,138.5C 75.4174,141.306 85.0841,144.806 94.5,149C 96.1892,152.964 99.1892,154.464 103.5,153.5 Z"/></g>
<g><path style="opacity:1" fill="#842825" d="M 119.5,116.5 C 121.243,117.641 122.243,119.308 122.5,121.5C 119.1,129.56 121.1,136.06 128.5,141C 131.734,141.2 134.734,142.033 137.5,143.5C 139.197,143.101 140.863,142.601 142.5,142C 144.338,138.819 146.005,135.653 147.5,132.5C 147.426,140.505 143.426,144.672 135.5,145C 138.365,145.183 141.031,145.683 143.5,146.5C 144.451,147.919 144.784,149.585 144.5,151.5C 141.833,151.5 139.167,151.5 136.5,151.5C 136.5,153.5 136.5,155.5 136.5,157.5C 134.973,153.054 133.973,148.387 133.5,143.5C 131.857,143.48 130.524,144.147 129.5,145.5C 127.999,144.248 126.332,143.248 124.5,142.5C 123.692,142.808 123.025,143.308 122.5,144C 123.5,145 124.5,146 125.5,147C 125.167,147.167 124.833,147.333 124.5,147.5C 123.15,146.05 121.484,145.383 119.5,145.5C 119.383,147.484 120.05,149.15 121.5,150.5C 120.645,151.293 119.811,150.96 119,149.5C 118.667,151.167 118.333,152.833 118,154.5C 117.722,153.584 117.222,152.918 116.5,152.5C 117.833,150.5 117.833,148.5 116.5,146.5C 116.5,145.5 116.5,144.5 116.5,143.5C 119.475,142.679 122.141,141.346 124.5,139.5C 122.844,138.008 121.344,136.342 120,134.5C 120.045,128.444 119.879,122.444 119.5,116.5 Z"/></g>
<g><path style="opacity:1" fill="#fff1ef" d="M 143.5,146.5 C 143.719,147.675 143.386,148.675 142.5,149.5C 140.253,150.374 137.92,150.708 135.5,150.5C 135.5,149.167 135.5,147.833 135.5,146.5C 138.167,146.5 140.833,146.5 143.5,146.5 Z"/></g>
<g><path style="opacity:1" fill="#5d2f2f" d="M 161.5,142.5 C 162.376,142.369 163.043,142.702 163.5,143.5C 159.917,143.949 156.75,145.282 154,147.5C 153.383,146.551 153.549,145.718 154.5,145C 156.927,144.098 159.26,143.264 161.5,142.5 Z"/></g>
<g><path style="opacity:1" fill="#72393c" d="M 151.5,140.5 C 153.225,140.843 153.725,141.843 153,143.5C 151.961,142.756 151.461,141.756 151.5,140.5 Z"/></g>
<g><path style="opacity:1" fill="#881f1d" d="M 95.5,122.5 C 100.952,128.619 107.286,133.619 114.5,137.5C 114.833,137.167 115.167,136.833 115.5,136.5C 114.807,135.482 114.141,134.482 113.5,133.5C 119.723,134.754 120.389,136.921 115.5,140C 116.337,141.011 116.67,142.178 116.5,143.5C 108.938,138.856 100.604,136.523 91.5,136.5C 91.33,137.822 91.6634,138.989 92.5,140C 96.2852,140.373 99.7852,141.539 103,143.5C 105.289,146.09 104.789,147.923 101.5,149C 98.7653,148.322 96.432,146.655 94.5,144C 84.9149,140.312 75.0816,137.479 65,135.5C 59.6204,136.206 57.2871,139.206 58,144.5C 59.0945,146.078 59.9278,147.745 60.5,149.5C 58.9256,149.063 57.7589,148.063 57,146.5C 56.6667,144.167 56.3333,141.833 56,139.5C 54.516,143.488 51.6826,145.154 47.5,144.5C 51.8956,141.942 55.5622,138.442 58.5,134C 62.5,133.667 66.5,133.333 70.5,133C 71.1634,131.482 72.1634,130.315 73.5,129.5C 73.607,131.903 72.607,133.736 70.5,135C 76.9421,136.52 83.2754,138.354 89.5,140.5C 90.2978,138.922 90.7978,137.256 91,135.5C 92.8267,134.341 94.4933,133.008 96,131.5C 97.9674,134.553 100.801,136.22 104.5,136.5C 105.932,136.267 106.432,135.6 106,134.5C 101.896,130.905 98.3958,126.905 95.5,122.5 Z"/></g>
<g><path style="opacity:1" fill="#6f2b30" d="M 187.5,131.5 C 189.951,133.21 189.951,135.21 187.5,137.5C 187.08,135.674 187.08,133.674 187.5,131.5 Z"/></g>
<g><path style="opacity:1" fill="#6a4344" d="M 158.5,131.5 C 161.087,133.266 163.753,133.933 166.5,133.5C 164.235,134.647 161.902,134.814 159.5,134C 158.748,133.329 158.414,132.496 158.5,131.5 Z"/></g>
<g><path style="opacity:1" fill="#9e0d10" d="M 89.5,113.5 C 92.2411,115.975 94.2411,118.975 95.5,122.5C 98.3958,126.905 101.896,130.905 106,134.5C 106.432,135.6 105.932,136.267 104.5,136.5C 100.801,136.22 97.9674,134.553 96,131.5C 94.4933,133.008 92.8267,134.341 91,135.5C 90.7978,137.256 90.2978,138.922 89.5,140.5C 83.2754,138.354 76.9421,136.52 70.5,135C 72.607,133.736 73.607,131.903 73.5,129.5C 74.4486,127.223 75.7819,125.223 77.5,123.5C 79.7007,118.083 82.2007,112.75 85,107.5C 85.7918,110.106 87.2918,112.106 89.5,113.5 Z"/></g>
<g><path style="opacity:1" fill="#86201e" d="M 196.5,111.5 C 198.611,115.558 200.611,119.725 202.5,124C 201.854,127.812 201.354,131.646 201,135.5C 200,137.833 198.333,139.5 196,140.5C 195.727,142.101 195.227,143.601 194.5,145C 192.618,145.198 190.952,145.698 189.5,146.5C 188.833,146.167 188.167,145.833 187.5,145.5C 186.909,144.849 186.243,144.182 185.5,143.5C 191.894,140.226 193.56,135.393 190.5,129C 188.443,128.695 186.443,128.695 184.5,129C 182.561,128.092 181.561,126.592 181.5,124.5C 184.369,121.488 185.702,122.155 185.5,126.5C 188.62,126.156 191.453,126.823 194,128.5C 196.084,127.231 198.251,126.231 200.5,125.5C 200.949,123.023 200.283,121.023 198.5,119.5C 197.438,121.942 195.938,123.942 194,125.5C 191.843,124.615 191.01,122.948 191.5,120.5C 192.5,120.5 193.5,120.5 194.5,120.5C 194.634,118.708 194.301,117.042 193.5,115.5C 192.538,113.164 193.538,111.83 196.5,111.5 Z"/></g>
<g><path style="opacity:1" fill="#f6d2cb" d="M 195.5,130.5 C 198.932,130.248 199.932,131.581 198.5,134.5C 196.775,133.985 195.108,133.318 193.5,132.5C 194.243,131.818 194.909,131.151 195.5,130.5 Z"/></g>
<g><path style="opacity:1" fill="#783639" d="M 160.5,123.5 C 163.983,122.916 166.983,123.749 169.5,126C 166.196,125.959 162.863,125.626 159.5,125C 160.056,124.617 160.389,124.117 160.5,123.5 Z"/></g>
<g><path style="opacity:1" fill="#812323" d="M 93.5,111.5 C 98.7164,118.06 104.383,124.393 110.5,130.5C 103.088,125.754 97.4216,119.42 93.5,111.5 Z"/></g>
<g><path style="opacity:1" fill="#812c29" d="M 181.5,119.5 C 180.518,118.859 179.518,118.193 178.5,117.5C 176.105,118.523 175.105,117.523 175.5,114.5C 177.156,113.854 178.823,113.187 180.5,112.5C 182.915,112.719 183.915,114.052 183.5,116.5C 185.167,116.5 186.833,116.5 188.5,116.5C 188.5,117.5 188.5,118.5 188.5,119.5C 186.167,119.5 183.833,119.5 181.5,119.5 Z"/></g>
<g><path style="opacity:1" fill="#fce8e5" d="M 95.5,100.5 C 96.3029,101.423 96.4696,102.423 96,103.5C 93.6086,104.429 91.7753,105.929 90.5,108C 91.3707,109.364 92.3707,110.53 93.5,111.5C 97.4216,119.42 103.088,125.754 110.5,130.5C 111.167,131.833 112.167,132.833 113.5,133.5C 114.141,134.482 114.807,135.482 115.5,136.5C 115.167,136.833 114.833,137.167 114.5,137.5C 107.286,133.619 100.952,128.619 95.5,122.5C 94.2411,118.975 92.2411,115.975 89.5,113.5C 87.7849,111.079 86.9516,108.413 87,105.5C 89.4778,103.18 92.3111,101.514 95.5,100.5 Z"/></g>
<g><path style="opacity:1" fill="#6e2d2e" d="M 155.5,101.5 C 155.5,102.167 155.5,102.833 155.5,103.5C 151.036,104.298 148.703,106.964 148.5,111.5C 149.93,111.579 151.264,111.246 152.5,110.5C 153.696,110.846 153.696,111.346 152.5,112C 150.527,112.495 148.527,112.662 146.5,112.5C 146.663,114.857 146.497,117.19 146,119.5C 143.408,110.299 146.575,104.299 155.5,101.5 Z"/></g>
<g><path style="opacity:1" fill="#f9e7e4" d="M 168.5,102.5 C 173.467,102.584 173.8,103.918 169.5,106.5C 172.086,107.48 174.753,107.813 177.5,107.5C 177.78,103.775 179.78,102.608 183.5,104C 181.137,104.589 180.137,106.089 180.5,108.5C 181.822,108.33 182.989,108.663 184,109.5C 187.297,105.596 188.297,106.262 187,111.5C 189.158,108.05 191.658,107.717 194.5,110.5C 192.128,111.347 190.128,112.681 188.5,114.5C 190.045,115.452 191.712,115.785 193.5,115.5C 194.301,117.042 194.634,118.708 194.5,120.5C 193.5,120.5 192.5,120.5 191.5,120.5C 191.01,122.948 191.843,124.615 194,125.5C 195.938,123.942 197.438,121.942 198.5,119.5C 200.283,121.023 200.949,123.023 200.5,125.5C 198.251,126.231 196.084,127.231 194,128.5C 191.453,126.823 188.62,126.156 185.5,126.5C 185.702,122.155 184.369,121.488 181.5,124.5C 181.5,122.833 181.5,121.167 181.5,119.5C 183.833,119.5 186.167,119.5 188.5,119.5C 188.5,118.5 188.5,117.5 188.5,116.5C 186.833,116.5 185.167,116.5 183.5,116.5C 183.915,114.052 182.915,112.719 180.5,112.5C 178.823,113.187 177.156,113.854 175.5,114.5C 173.653,113.427 171.653,113.427 169.5,114.5C 171.45,112.974 173.783,111.974 176.5,111.5C 173.19,110.651 169.856,110.818 166.5,112C 163.278,114.941 162.945,114.441 165.5,110.5C 165.167,110.167 164.833,109.833 164.5,109.5C 163.52,110.981 162.353,112.315 161,113.5C 160.316,112.216 160.483,111.049 161.5,110C 160.258,109.689 159.258,110.189 158.5,111.5C 157.571,110.311 157.238,108.978 157.5,107.5C 159.929,107.415 161.929,106.415 163.5,104.5C 165.979,105.964 167.645,105.297 168.5,102.5 Z"/></g>
<g><path style="opacity:1" fill="#7f2e2d" d="M 196.5,111.5 C 193.538,111.83 192.538,113.164 193.5,115.5C 191.712,115.785 190.045,115.452 188.5,114.5C 190.128,112.681 192.128,111.347 194.5,110.5C 191.658,107.717 189.158,108.05 187,111.5C 188.297,106.262 187.297,105.596 184,109.5C 182.989,108.663 181.822,108.33 180.5,108.5C 180.137,106.089 181.137,104.589 183.5,104C 179.78,102.608 177.78,103.775 177.5,107.5C 174.753,107.813 172.086,107.48 169.5,106.5C 173.8,103.918 173.467,102.584 168.5,102.5C 168.5,102.167 168.5,101.833 168.5,101.5C 168.917,100.876 169.584,100.543 170.5,100.5C 174.939,102.138 179.606,102.971 184.5,103C 187.975,105.24 191.642,107.24 195.5,109C 196.252,109.671 196.586,110.504 196.5,111.5 Z"/></g>
<g><path style="opacity:1" fill="#9f0b10" d="M 118.5,97.5 C 118.533,101.783 117.533,105.783 115.5,109.5C 115.357,112.786 116.69,115.12 119.5,116.5C 119.879,122.444 120.045,128.444 120,134.5C 121.344,136.342 122.844,138.008 124.5,139.5C 122.141,141.346 119.475,142.679 116.5,143.5C 116.67,142.178 116.337,141.011 115.5,140C 120.389,136.921 119.723,134.754 113.5,133.5C 112.167,132.833 111.167,131.833 110.5,130.5C 104.383,124.393 98.7164,118.06 93.5,111.5C 93.5,109.833 93.5,108.167 93.5,106.5C 97.7589,106.898 99.5922,104.898 99,100.5C 101.237,101.056 103.237,102.056 105,103.5C 105.399,103.272 105.565,102.938 105.5,102.5C 106.791,102.737 107.791,102.404 108.5,101.5C 109.392,99.6382 109.559,97.6382 109,95.5C 110.616,96.8009 112.116,96.8009 113.5,95.5C 114.117,95.3893 114.617,95.056 115,94.5C 116.039,95.7101 117.206,96.7101 118.5,97.5 Z"/></g>
<g><path style="opacity:1" fill="#831f1c" d="M 118.5,97.5 C 119.993,98.3121 120.66,99.6455 120.5,101.5C 119.447,104.41 118.113,107.244 116.5,110C 117.391,112.279 118.391,114.446 119.5,116.5C 116.69,115.12 115.357,112.786 115.5,109.5C 117.533,105.783 118.533,101.783 118.5,97.5 Z"/></g>
<g><path style="opacity:1" fill="#80201e" d="M 159.5,73.5 C 161.1,74.9516 162.1,76.7849 162.5,79C 161.841,81.4621 161.507,83.9621 161.5,86.5C 160.596,87.209 160.263,88.209 160.5,89.5C 159.718,93.6745 159.051,98.0078 158.5,102.5C 159.304,104.957 160.304,104.957 161.5,102.5C 163.743,101.526 166.076,101.192 168.5,101.5C 168.5,101.833 168.5,102.167 168.5,102.5C 167.645,105.297 165.979,105.964 163.5,104.5C 161.929,106.415 159.929,107.415 157.5,107.5C 157.238,108.978 157.571,110.311 158.5,111.5C 159.258,110.189 160.258,109.689 161.5,110C 160.483,111.049 160.316,112.216 161,113.5C 162.353,112.315 163.52,110.981 164.5,109.5C 164.833,109.833 165.167,110.167 165.5,110.5C 162.945,114.441 163.278,114.941 166.5,112C 169.856,110.818 173.19,110.651 176.5,111.5C 173.783,111.974 171.45,112.974 169.5,114.5C 166.078,116.065 162.411,117.065 158.5,117.5C 152.732,121.477 150.732,126.81 152.5,133.5C 150.652,135.68 150.319,138.014 151.5,140.5C 150.532,142.607 150.198,144.941 150.5,147.5C 149.584,141.984 149.417,136.317 150,130.5C 149.583,131.756 148.75,132.423 147.5,132.5C 149.654,127.521 151.821,122.521 154,117.5C 154.578,113.279 155.411,109.112 156.5,105C 156.43,104.235 156.097,103.735 155.5,103.5C 155.5,102.833 155.5,102.167 155.5,101.5C 157.446,96.6042 158.113,91.2709 157.5,85.5C 153.057,88.0944 148.557,90.7611 144,93.5C 141.699,92.1996 139.699,90.533 138,88.5C 136.274,89.6479 136.441,90.8145 138.5,92C 137.833,92.1667 137.167,92.3333 136.5,92.5C 133.758,90.4318 130.758,89.0985 127.5,88.5C 131.862,88.2437 136.195,88.077 140.5,88C 143.124,92.2494 145.791,92.0827 148.5,87.5C 151.684,85.8901 155.017,84.8901 158.5,84.5C 158.955,82.6334 159.622,80.8001 160.5,79C 160.057,77.175 159.723,75.3417 159.5,73.5 Z"/></g>
<g><path style="opacity:1" fill="#fbdfd8" d="M 108.5,101.5 C 107.791,102.404 106.791,102.737 105.5,102.5C 104.818,99.3246 102.818,97.8246 99.5,98C 102.478,93.3803 105.311,93.547 108,98.5C 108.483,99.448 108.649,100.448 108.5,101.5 Z"/></g>
<g><path style="opacity:1" fill="#8a1818" d="M 125.5,87.5 C 124.167,87.5 122.833,87.5 121.5,87.5C 121.5,88.8333 121.5,90.1667 121.5,91.5C 118.989,91.162 116.655,91.162 114.5,91.5C 116.278,93.264 117.611,95.264 118.5,97.5C 117.206,96.7101 116.039,95.7101 115,94.5C 114.617,95.056 114.117,95.3893 113.5,95.5C 112.116,96.8009 110.616,96.8009 109,95.5C 109.559,97.6382 109.392,99.6382 108.5,101.5C 108.649,100.448 108.483,99.448 108,98.5C 105.311,93.547 102.478,93.3803 99.5,98C 102.818,97.8246 104.818,99.3246 105.5,102.5C 105.565,102.938 105.399,103.272 105,103.5C 103.237,102.056 101.237,101.056 99,100.5C 99.5922,104.898 97.7589,106.898 93.5,106.5C 93.5,108.167 93.5,109.833 93.5,111.5C 92.3707,110.53 91.3707,109.364 90.5,108C 91.7753,105.929 93.6086,104.429 96,103.5C 96.4696,102.423 96.3029,101.423 95.5,100.5C 95.5,99.8333 95.5,99.1667 95.5,98.5C 95.5,97.8333 95.5,97.1667 95.5,96.5C 96.4959,96.4142 97.3292,96.7476 98,97.5C 103.716,90.0737 111.216,87.407 120.5,89.5C 120.5,88.1667 120.5,86.8333 120.5,85.5C 122.781,85.0773 124.448,85.744 125.5,87.5 Z"/></g>
<g><path style="opacity:1" fill="#fce4de" d="M 113.5,95.5 C 111.088,95.756 109.421,94.756 108.5,92.5C 111.833,90.7482 113.499,91.7482 113.5,95.5 Z"/></g>
<g><path style="opacity:1" fill="#fbf4f2" d="M 155.5,101.5 C 146.575,104.299 143.408,110.299 146,119.5C 146.497,117.19 146.663,114.857 146.5,112.5C 148.527,112.662 150.527,112.495 152.5,112C 153.696,111.346 153.696,110.846 152.5,110.5C 151.264,111.246 149.93,111.579 148.5,111.5C 148.703,106.964 151.036,104.298 155.5,103.5C 156.097,103.735 156.43,104.235 156.5,105C 155.411,109.112 154.578,113.279 154,117.5C 151.821,122.521 149.654,127.521 147.5,132.5C 146.005,135.653 144.338,138.819 142.5,142C 140.863,142.601 139.197,143.101 137.5,143.5C 134.734,142.033 131.734,141.2 128.5,141C 121.1,136.06 119.1,129.56 122.5,121.5C 122.243,119.308 121.243,117.641 119.5,116.5C 118.391,114.446 117.391,112.279 116.5,110C 118.113,107.244 119.447,104.41 120.5,101.5C 120.66,99.6455 119.993,98.3121 118.5,97.5C 117.611,95.264 116.278,93.264 114.5,91.5C 116.655,91.162 118.989,91.162 121.5,91.5C 121.5,90.1667 121.5,88.8333 121.5,87.5C 122.833,87.5 124.167,87.5 125.5,87.5C 125.842,88.3382 126.508,88.6716 127.5,88.5C 130.758,89.0985 133.758,90.4318 136.5,92.5C 137.167,92.3333 137.833,92.1667 138.5,92C 136.441,90.8145 136.274,89.6479 138,88.5C 139.699,90.533 141.699,92.1996 144,93.5C 148.557,90.7611 153.057,88.0944 157.5,85.5C 158.113,91.2709 157.446,96.6042 155.5,101.5 Z"/></g>
<g><path style="opacity:1" fill="#682727" d="M 133.5,134.5 C 136.127,135.105 138.793,135.605 141.5,136C 138.451,137.057 135.451,137.224 132.5,136.5C 132.863,135.817 133.196,135.15 133.5,134.5 Z"/></g>
<g><path style="opacity:1" fill="#862b25" d="M 134.5,123.5 C 137.712,126.457 141.378,128.957 145.5,131C 140.035,133.091 134.701,132.758 129.5,130C 131.847,129.666 134.181,129.833 136.5,130.5C 135.833,128.167 135.167,125.833 134.5,123.5 Z"/></g>
<g><path style="opacity:1" fill="#802624" d="M 124.5,105.5 C 140.27,102.341 145.436,108.674 140,124.5C 138.266,120.403 137.266,116.069 137,111.5C 134.159,113.504 130.993,114.004 127.5,113C 129.81,112.503 132.143,112.337 134.5,112.5C 134.822,110.278 134.155,108.444 132.5,107C 129.937,105.921 127.271,105.421 124.5,105.5 Z"/></g>
<g><path style="opacity:1" fill="#fcf7f6" d="M 182.5,86.5 C 194.307,89.4652 203.474,96.1319 210,106.5C 218.39,126.109 214.556,142.942 198.5,157C 195.137,157.48 192.47,156.313 190.5,153.5C 189.631,151.283 189.298,148.95 189.5,146.5C 190.952,145.698 192.618,145.198 194.5,145C 195.227,143.601 195.727,142.101 196,140.5C 198.333,139.5 200,137.833 201,135.5C 201.354,131.646 201.854,127.812 202.5,124C 200.611,119.725 198.611,115.558 196.5,111.5C 196.586,110.504 196.252,109.671 195.5,109C 191.642,107.24 187.975,105.24 184.5,103C 179.606,102.971 174.939,102.138 170.5,100.5C 169.584,100.543 168.917,100.876 168.5,101.5C 166.076,101.192 163.743,101.526 161.5,102.5C 160.304,104.957 159.304,104.957 158.5,102.5C 159.051,98.0078 159.718,93.6745 160.5,89.5C 167.556,86.9788 174.889,85.9788 182.5,86.5 Z"/></g>
<g><path style="opacity:1" fill="#9f0c10" d="M 111.5,62.5 C 110.892,65.3267 109.892,67.9933 108.5,70.5C 106.968,72.7916 105.301,75.125 103.5,77.5C 103.931,79.7661 105.264,81.2661 107.5,82C 117.379,81.8073 127.046,82.9739 136.5,85.5C 139.892,83.6459 143.559,82.6459 147.5,82.5C 149.694,83.7665 152.028,83.7665 154.5,82.5C 156.129,79.7341 156.795,76.7341 156.5,73.5C 157.5,73.5 158.5,73.5 159.5,73.5C 159.723,75.3417 160.057,77.175 160.5,79C 159.622,80.8001 158.955,82.6334 158.5,84.5C 155.017,84.8901 151.684,85.8901 148.5,87.5C 145.791,92.0827 143.124,92.2494 140.5,88C 136.195,88.077 131.862,88.2437 127.5,88.5C 126.508,88.6716 125.842,88.3382 125.5,87.5C 124.448,85.744 122.781,85.0773 120.5,85.5C 120.5,86.8333 120.5,88.1667 120.5,89.5C 111.216,87.407 103.716,90.0737 98,97.5C 97.3292,96.7476 96.4959,96.4142 95.5,96.5C 95.5,96.1667 95.5,95.8333 95.5,95.5C 94.1107,87.8364 95.1107,80.5031 98.5,73.5C 101.328,70.8184 103.662,67.6517 105.5,64C 107.305,63.028 108.972,61.8613 110.5,60.5C 111.298,60.9569 111.631,61.6236 111.5,62.5 Z"/></g>
<g><path style="opacity:1" fill="#85221f" d="M 98.5,73.5 C 95.1107,80.5031 94.1107,87.8364 95.5,95.5C 94.7784,95.0825 94.2784,94.4158 94,93.5C 93.4698,87.796 93.8032,82.1294 95,76.5C 95.4224,74.5743 96.5891,73.5743 98.5,73.5 Z"/></g>
<g><path style="opacity:1" fill="#802826" d="M 163.5,52.5 C 172.97,61.7677 179.636,72.7677 183.5,85.5C 182.833,85.5 182.5,85.8333 182.5,86.5C 174.889,85.9788 167.556,86.9788 160.5,89.5C 160.263,88.209 160.596,87.209 161.5,86.5C 167.031,84.8754 172.697,84.2087 178.5,84.5C 178.182,79.1831 176.682,74.1831 174,69.5C 156.662,44.4317 133.495,36.9317 104.5,47C 76.1703,63.3221 67.6703,86.8221 79,117.5C 80.3978,113.14 81.8978,108.807 83.5,104.5C 86.9755,101.429 90.9755,99.4289 95.5,98.5C 95.5,99.1667 95.5,99.8333 95.5,100.5C 92.3111,101.514 89.4778,103.18 87,105.5C 86.9516,108.413 87.7849,111.079 89.5,113.5C 87.2918,112.106 85.7918,110.106 85,107.5C 82.2007,112.75 79.7007,118.083 77.5,123.5C 75.3727,116.999 73.5393,110.332 72,103.5C 69.3765,74.6493 81.2098,54.316 107.5,42.5C 109.099,42.7678 110.432,42.4345 111.5,41.5C 130.595,37.4551 147.929,41.1218 163.5,52.5 Z"/></g>
<g><path style="opacity:1" fill="#fdfcfa" d="M 107.5,42.5 C 81.2098,54.316 69.3765,74.6493 72,103.5C 73.5393,110.332 75.3727,116.999 77.5,123.5C 75.7819,125.223 74.4486,127.223 73.5,129.5C 72.1634,130.315 71.1634,131.482 70.5,133C 66.5,133.333 62.5,133.667 58.5,134C 55.5622,138.442 51.8956,141.942 47.5,144.5C 45.9382,144.733 44.6049,145.4 43.5,146.5C 41.1305,146.851 38.7972,147.018 36.5,147C 36.8333,146.667 37.1667,146.333 37.5,146C 36.8095,144.933 36.3095,143.766 36,142.5C 35.3333,132.5 35.3333,122.5 36,112.5C 38.8445,106.134 40.8445,99.4669 42,92.5C 43.2709,89.5674 44.9376,86.9007 47,84.5C 47.4935,82.8659 47.6602,81.1992 47.5,79.5C 48.8734,79.6567 50.2068,79.49 51.5,79C 54.7099,74.0797 58.0433,69.2463 61.5,64.5C 68.0027,60.1776 74.1694,55.511 80,50.5C 81.1861,52.6766 83.0194,53.6766 85.5,53.5C 85.756,51.0876 84.756,49.4209 82.5,48.5C 83,48.1667 83.5,47.8333 84,47.5C 86.8812,49.1507 89.0479,48.484 90.5,45.5C 95.8526,42.3021 101.519,41.3021 107.5,42.5 Z"/></g>
<g><path style="opacity:1" fill="#fdf9eb" d="M 141.5,33.5 C 142.043,33.56 142.376,33.8933 142.5,34.5C 141.271,35.2811 139.938,35.7811 138.5,36C 141.025,36.8959 143.192,36.3959 145,34.5C 147.699,34.6638 150.532,34.8305 153.5,35C 163.086,39.315 172.753,43.6484 182.5,48C 187.322,51.911 192.322,55.5776 197.5,59C 200.741,63.3581 204.074,67.5247 207.5,71.5C 206.448,71.6495 205.448,71.4828 204.5,71C 202.074,67.4841 199.407,64.1508 196.5,61C 189.977,57.5729 183.977,53.4063 178.5,48.5C 172.856,45.7636 167.022,43.4303 161,41.5C 158.901,43.8276 156.735,43.9942 154.5,42C 155.833,41.3333 156.833,40.3333 157.5,39C 140.869,37.4427 124.202,37.1094 107.5,38C 106.359,38.7412 106.359,39.5745 107.5,40.5C 108.689,41.4287 110.022,41.762 111.5,41.5C 110.432,42.4345 109.099,42.7678 107.5,42.5C 101.519,41.3021 95.8526,42.3021 90.5,45.5C 89.0479,48.484 86.8812,49.1507 84,47.5C 83.5,47.8333 83,48.1667 82.5,48.5C 84.756,49.4209 85.756,51.0876 85.5,53.5C 83.0194,53.6766 81.1861,52.6766 80,50.5C 74.1694,55.511 68.0027,60.1776 61.5,64.5C 58.0433,69.2463 54.7099,74.0797 51.5,79C 50.2068,79.49 48.8734,79.6567 47.5,79.5C 47.6602,81.1992 47.4935,82.8659 47,84.5C 44.9376,86.9007 43.2709,89.5674 42,92.5C 40.8445,99.4669 38.8445,106.134 36,112.5C 35.3333,122.5 35.3333,132.5 36,142.5C 36.3095,143.766 36.8095,144.933 37.5,146C 37.1667,146.333 36.8333,146.667 36.5,147C 38.7972,147.018 41.1305,146.851 43.5,146.5C 40.5,150.167 37.1667,153.5 33.5,156.5C 33.4606,155.417 33.1272,154.417 32.5,153.5C 34.2249,151.043 34.7249,148.377 34,145.5C 32.4419,146.345 31.4419,145.679 31,143.5C 29.7139,133.308 29.2139,123.142 29.5,113C 30,112.5 30.5,112 31,111.5C 31.2599,107.75 31.9266,104.084 33,100.5C 36.5945,94.1641 39.5945,87.4974 42,80.5C 46.0285,75.145 50.0285,69.8117 54,64.5C 60.212,58.4646 67.0453,53.1313 74.5,48.5C 80.9537,45.2732 87.9537,41.7732 95.5,38C 103.631,35.5996 111.965,34.0996 120.5,33.5C 127.51,34.7526 134.51,34.7526 141.5,33.5 Z"/></g>
<g><path style="opacity:1" fill="#fcf7f5" d="M 161.5,86.5 C 161.507,83.9621 161.841,81.4621 162.5,79C 162.1,76.7849 161.1,74.9516 159.5,73.5C 150.106,57.31 136.106,51.1434 117.5,55C 108.062,58.0395 101.728,64.2061 98.5,73.5C 96.5891,73.5743 95.4224,74.5743 95,76.5C 93.8032,82.1294 93.4698,87.796 94,93.5C 94.2784,94.4158 94.7784,95.0825 95.5,95.5C 95.5,95.8333 95.5,96.1667 95.5,96.5C 95.5,97.1667 95.5,97.8333 95.5,98.5C 90.9755,99.4289 86.9755,101.429 83.5,104.5C 81.8978,108.807 80.3978,113.14 79,117.5C 67.6703,86.8221 76.1703,63.3221 104.5,47C 133.495,36.9317 156.662,44.4317 174,69.5C 176.682,74.1831 178.182,79.1831 178.5,84.5C 172.697,84.2087 167.031,84.8754 161.5,86.5 Z"/></g>
<g><path style="opacity:1" fill="#861c1a" d="M 108.5,70.5 C 108.16,73.1441 108.827,75.4775 110.5,77.5C 108.784,77.9972 107.117,78.3306 105.5,78.5C 106.09,79.7989 107.09,80.6322 108.5,81C 117.773,81.0034 126.94,81.8368 136,83.5C 138.261,82.1477 140.761,81.481 143.5,81.5C 145.045,81.5108 146.378,81.8442 147.5,82.5C 143.559,82.6459 139.892,83.6459 136.5,85.5C 127.046,82.9739 117.379,81.8073 107.5,82C 105.264,81.2661 103.931,79.7661 103.5,77.5C 105.301,75.125 106.968,72.7916 108.5,70.5 Z"/></g>
<g><path style="opacity:1" fill="#7e2625" d="M 159.5,73.5 C 158.5,73.5 157.5,73.5 156.5,73.5C 156.795,76.7341 156.129,79.7341 154.5,82.5C 152.028,83.7665 149.694,83.7665 147.5,82.5C 154.409,82.0468 156.909,78.3801 155,71.5C 147.088,58.3027 135.588,53.4694 120.5,57C 116.843,57.8371 113.843,59.6704 111.5,62.5C 111.631,61.6236 111.298,60.9569 110.5,60.5C 108.972,61.8613 107.305,63.028 105.5,64C 103.662,67.6517 101.328,70.8184 98.5,73.5C 101.728,64.2061 108.062,58.0395 117.5,55C 136.106,51.1434 150.106,57.31 159.5,73.5 Z"/></g>
<g><path style="opacity:1" fill="#fdf9f8" d="M 147.5,82.5 C 146.378,81.8442 145.045,81.5108 143.5,81.5C 140.761,81.481 138.261,82.1477 136,83.5C 126.94,81.8368 117.773,81.0034 108.5,81C 107.09,80.6322 106.09,79.7989 105.5,78.5C 107.117,78.3306 108.784,77.9972 110.5,77.5C 108.827,75.4775 108.16,73.1441 108.5,70.5C 109.892,67.9933 110.892,65.3267 111.5,62.5C 113.843,59.6704 116.843,57.8371 120.5,57C 135.588,53.4694 147.088,58.3027 155,71.5C 156.909,78.3801 154.409,82.0468 147.5,82.5 Z"/></g>
<g><path style="opacity:1" fill="#503030" d="M 156.5,148.5 C 159.797,148.329 160.131,148.995 157.5,150.5C 156.702,150.043 156.369,149.376 156.5,148.5 Z"/></g>
<g><path style="opacity:1" fill="#9d0e11" d="M 60.5,149.5 C 62.2038,152.256 63.5371,155.256 64.5,158.5C 65.0283,159.847 65.195,161.181 65,162.5C 63.2591,161.242 61.4258,160.242 59.5,159.5C 56.5227,158.322 53.5227,158.322 50.5,159.5C 47.4318,160.022 44.4318,160.855 41.5,162C 36.9326,165.566 32.0993,168.733 27,171.5C 25.9701,171.164 25.4701,170.497 25.5,169.5C 25.5,169.167 25.5,168.833 25.5,168.5C 27.6029,165.28 29.9362,162.28 32.5,159.5C 37.8063,154.86 42.8063,149.86 47.5,144.5C 51.6826,145.154 54.516,143.488 56,139.5C 56.3333,141.833 56.6667,144.167 57,146.5C 57.7589,148.063 58.9256,149.063 60.5,149.5 Z"/></g>
<g><path style="opacity:1" fill="#7b1f1b" d="M 47.5,144.5 C 42.8063,149.86 37.8063,154.86 32.5,159.5C 32.8333,158.833 33.1667,158.167 33.5,157.5C 33.5,157.167 33.5,156.833 33.5,156.5C 37.1667,153.5 40.5,150.167 43.5,146.5C 44.6049,145.4 45.9382,144.733 47.5,144.5 Z"/></g>
<g><path style="opacity:1" fill="#971616" d="M 103.5,153.5 C 107.666,150.916 112,148.583 116.5,146.5C 117.833,148.5 117.833,150.5 116.5,152.5C 115.833,152.5 115.5,152.833 115.5,153.5C 112.302,152.964 109.635,153.631 107.5,155.5C 97.1734,160.544 87.8401,159.21 79.5,151.5C 79.0248,149.216 78.0248,147.216 76.5,145.5C 76.3691,144.624 76.7025,143.957 77.5,143.5C 85.2454,145.537 91.912,149.37 97.5,155C 99.8805,155.738 101.881,155.238 103.5,153.5 Z"/></g>
<g><path style="opacity:1" fill="#894546" d="M 187.5,145.5 C 188.167,145.833 188.833,146.167 189.5,146.5C 189.298,148.95 189.631,151.283 190.5,153.5C 189.005,153.989 187.671,154.655 186.5,155.5C 184.236,154.781 181.903,154.448 179.5,154.5C 178.167,153.833 176.833,153.167 175.5,152.5C 177.734,152.62 179.901,152.287 182,151.5C 183.597,152.885 185.43,153.551 187.5,153.5C 187.5,150.833 187.5,148.167 187.5,145.5 Z"/></g>
<g><path style="opacity:0.22" fill="#7e7d7a" d="M 1.5,154.5 C 3.16276,156.438 3.82943,158.772 3.5,161.5C 2.38815,159.401 1.72148,157.067 1.5,154.5 Z"/></g>
<g><path style="opacity:1" fill="#741f1f" d="M 175.5,152.5 C 176.833,153.167 178.167,153.833 179.5,154.5C 177.246,155.415 175.246,156.748 173.5,158.5C 176.94,160.1 180.274,161.933 183.5,164C 184.993,165.156 184.826,165.99 183,166.5C 177.172,161.339 170.338,158.505 162.5,158C 165.5,157.667 168.5,157.333 171.5,157C 171.167,156.667 170.833,156.333 170.5,156C 166.5,155.667 162.5,155.333 158.5,155C 163.293,154.347 167.959,153.18 172.5,151.5C 173.584,151.685 174.584,152.018 175.5,152.5 Z"/></g>
<g><path style="opacity:1" fill="#fcf9f4" d="M 59.5,159.5 C 61.9018,162.215 64.5685,164.715 67.5,167C 75.8986,172.524 84.2319,178.024 92.5,183.5C 91.5,183.5 90.5,183.5 89.5,183.5C 78.1427,185.003 66.8094,186.67 55.5,188.5C 52.4318,188.453 49.4318,187.953 46.5,187C 46.8333,186.667 47.1667,186.333 47.5,186C 44.8358,183.331 43.0024,180.164 42,176.5C 40.9326,175.809 39.7659,175.309 38.5,175C 38.8333,174.667 39.1667,174.333 39.5,174C 38.6433,173.311 37.9767,172.478 37.5,171.5C 38.9501,170.15 39.6168,168.484 39.5,166.5C 42.9197,163.741 46.5863,161.408 50.5,159.5C 53.5227,158.322 56.5227,158.322 59.5,159.5 Z"/></g>
<g><path style="opacity:1" fill="#6f3729" d="M 242.5,159.5 C 242.833,159.5 243.167,159.5 243.5,159.5C 241.565,167.357 238.565,174.69 234.5,181.5C 236.992,174.016 239.659,166.683 242.5,159.5 Z"/></g>
<g><path style="opacity:0.047" fill="#595d5a" d="M 3.5,161.5 C 5.03954,163.838 5.70621,166.505 5.5,169.5C 4.2318,167.095 3.56513,164.428 3.5,161.5 Z"/></g>
<g><path style="opacity:1" fill="#822016" d="M 50.5,159.5 C 46.5863,161.408 42.9197,163.741 39.5,166.5C 34.2553,169.075 29.2553,172.075 24.5,175.5C 23.609,176.11 22.609,176.443 21.5,176.5C 22.5957,173.968 23.9291,171.635 25.5,169.5C 25.4701,170.497 25.9701,171.164 27,171.5C 32.0993,168.733 36.9326,165.566 41.5,162C 44.4318,160.855 47.4318,160.022 50.5,159.5 Z"/></g>
<g><path style="opacity:1" fill="#723023" d="M 12.5,143.5 C 13.8545,154.935 16.8545,165.935 21.5,176.5C 22.4552,178.746 23.1218,181.079 23.5,183.5C 17.2132,172.719 13.2132,161.053 11.5,148.5C 12.4511,147.081 12.7845,145.415 12.5,143.5 Z"/></g>
<g><path style="opacity:0.263" fill="#636464" d="M 254.5,165.5 C 253.405,170.784 251.739,175.784 249.5,180.5C 250.194,175.085 251.86,170.085 254.5,165.5 Z"/></g>
<g><path style="opacity:1" fill="#792221" d="M 64.5,158.5 C 65.1667,158.833 65.8333,159.167 66.5,159.5C 68.6664,161.837 70.6664,164.337 72.5,167C 79.1667,171.667 85.8333,176.333 92.5,181C 96.0257,182.337 99.6924,182.837 103.5,182.5C 103.5,182.833 103.5,183.167 103.5,183.5C 99.8333,183.5 96.1667,183.5 92.5,183.5C 84.2319,178.024 75.8986,172.524 67.5,167C 64.5685,164.715 61.9018,162.215 59.5,159.5C 61.4258,160.242 63.2591,161.242 65,162.5C 65.195,161.181 65.0283,159.847 64.5,158.5 Z"/></g>
<g><path style="opacity:1" fill="#722525" d="M 193.5,182.5 C 189.066,183.794 184.733,183.794 180.5,182.5C 184.182,182.665 187.848,182.499 191.5,182C 183.438,177.416 177.105,171.583 172.5,164.5C 180.134,169.803 187.134,175.803 193.5,182.5 Z"/></g>
<g><path style="opacity:1" fill="#fbeecf" d="M 39.5,166.5 C 39.6168,168.484 38.9501,170.15 37.5,171.5C 37.9767,172.478 38.6433,173.311 39.5,174C 39.1667,174.333 38.8333,174.667 38.5,175C 39.7659,175.309 40.9326,175.809 42,176.5C 43.0024,180.164 44.8358,183.331 47.5,186C 47.1667,186.333 46.8333,186.667 46.5,187C 49.4318,187.953 52.4318,188.453 55.5,188.5C 50.5105,190.622 45.1771,191.622 39.5,191.5C 39.9175,190.778 40.5842,190.278 41.5,190C 37.9808,186.141 34.8141,181.975 32,177.5C 30.2859,176.075 28.9525,176.408 28,178.5C 27.015,177.186 25.8484,176.186 24.5,175.5C 29.2553,172.075 34.2553,169.075 39.5,166.5 Z"/></g>
<g><path style="opacity:1" fill="#82201e" d="M 115.5,153.5 C 116.031,157.544 118.031,160.71 121.5,163C 128.993,168.332 136.327,173.832 143.5,179.5C 152.274,181.239 160.941,180.406 169.5,177C 170.5,176.167 171.5,175.333 172.5,174.5C 172.167,174.167 171.833,173.833 171.5,173.5C 163.304,177.975 154.638,179.642 145.5,178.5C 143.611,177.396 141.945,176.063 140.5,174.5C 140.833,174.5 141.167,174.5 141.5,174.5C 148.889,178.361 156.223,178.027 163.5,173.5C 164.641,171.579 164.808,169.579 164,167.5C 159.124,162.187 153.458,161.187 147,164.5C 145.066,162.459 142.899,160.792 140.5,159.5C 141.167,159.5 141.5,159.167 141.5,158.5C 143.954,160.06 146.62,161.06 149.5,161.5C 149.166,157.352 146.833,155.685 142.5,156.5C 144.011,154.559 146.011,154.059 148.5,155C 150.213,156.925 151.547,159.092 152.5,161.5C 153.946,160.829 154.612,159.662 154.5,158C 154.227,156.467 153.894,154.967 153.5,153.5C 155.34,155.168 157.34,156.668 159.5,158C 157.714,158.196 156.381,159.029 155.5,160.5C 164.049,165.381 172.049,171.048 179.5,177.5C 175.941,178.142 172.607,179.309 169.5,181C 173.356,181.177 177.023,181.677 180.5,182.5C 175.516,182.864 170.683,182.197 166,180.5C 156.218,182.928 146.718,182.261 137.5,178.5C 137.167,178.5 136.833,178.5 136.5,178.5C 131.438,173.945 125.938,169.945 120,166.5C 117.344,162.856 115.511,158.856 114.5,154.5C 112.05,154.298 109.717,154.631 107.5,155.5C 109.635,153.631 112.302,152.964 115.5,153.5 Z"/></g>
<g><path style="opacity:1" fill="#f9ccc8" d="M 143.5,179.5 C 144.492,179.672 145.158,179.338 145.5,178.5C 154.638,179.642 163.304,177.975 171.5,173.5C 171.833,173.833 172.167,174.167 172.5,174.5C 171.5,175.333 170.5,176.167 169.5,177C 160.941,180.406 152.274,181.239 143.5,179.5 Z"/></g>
<g><path style="opacity:1" fill="#723b3d" d="M 146.5,169.5 C 147.873,169.343 149.207,169.51 150.5,170C 151.451,170.718 151.617,171.551 151,172.5C 148.974,172.085 147.474,171.085 146.5,169.5 Z"/></g>
<g><path style="opacity:1" fill="#8b6d6d" d="M 141.5,174.5 C 141.167,174.5 140.833,174.5 140.5,174.5C 136.172,172.653 132.505,169.819 129.5,166C 129.833,165.833 130.167,165.667 130.5,165.5C 134.053,168.758 137.72,171.758 141.5,174.5 Z"/></g>
<g><path style="opacity:1" fill="#fce7e5" d="M 142.5,156.5 C 146.833,155.685 149.166,157.352 149.5,161.5C 146.62,161.06 143.954,160.06 141.5,158.5C 140.561,157.673 140.895,157.006 142.5,156.5 Z"/></g>
<g><path style="opacity:1" fill="#d88785" d="M 136.5,178.5 C 136.833,178.5 137.167,178.5 137.5,178.5C 134.663,180.402 131.329,181.069 127.5,180.5C 130.5,179.833 133.5,179.167 136.5,178.5 Z"/></g>
<g><path style="opacity:0.161" fill="#565656" d="M 8.5,177.5 C 10.5918,180.088 11.9251,183.088 12.5,186.5C 10.3926,183.943 9.05923,180.943 8.5,177.5 Z"/></g>
<g><path style="opacity:0.196" fill="#403f42" d="M 249.5,180.5 C 249.34,182.153 248.674,183.486 247.5,184.5C 247.229,182.62 247.896,181.287 249.5,180.5 Z"/></g>
<g><path style="opacity:1" fill="#fae7ba" d="M 24.5,175.5 C 25.8484,176.186 27.015,177.186 28,178.5C 28.9525,176.408 30.2859,176.075 32,177.5C 34.8141,181.975 37.9808,186.141 41.5,190C 40.5842,190.278 39.9175,190.778 39.5,191.5C 36.1122,193.118 32.4456,194.118 28.5,194.5C 28.1667,193.167 27.8333,191.833 27.5,190.5C 26.9213,187.669 25.588,185.336 23.5,183.5C 23.1218,181.079 22.4552,178.746 21.5,176.5C 22.609,176.443 23.609,176.11 24.5,175.5 Z"/></g>
<g><path style="opacity:1" fill="#9c0d10" d="M 137.5,178.5 C 146.718,182.261 156.218,182.928 166,180.5C 170.683,182.197 175.516,182.864 180.5,182.5C 184.733,183.794 189.066,183.794 193.5,182.5C 195.284,183.72 196.95,183.72 198.5,182.5C 199.167,182.5 199.5,182.167 199.5,181.5C 200.338,181.842 200.672,182.508 200.5,183.5C 205.269,184.889 210.269,185.556 215.5,185.5C 218.909,186.903 222.575,187.57 226.5,187.5C 226.833,187.5 227.167,187.5 227.5,187.5C 228.568,188.434 229.901,188.768 231.5,188.5C 231.5,188.833 231.5,189.167 231.5,189.5C 221.559,188.087 211.559,187.42 201.5,187.5C 201.039,191.509 201.872,195.176 204,198.5C 206.292,200.436 209.459,201.769 213.5,202.5C 211.712,202.215 210.045,202.548 208.5,203.5C 210.005,204.842 210.672,206.508 210.5,208.5C 209.313,210.072 208.313,211.739 207.5,213.5C 206.183,210.572 204.85,207.572 203.5,204.5C 204.376,204.631 205.043,204.298 205.5,203.5C 204.167,203.167 202.833,202.833 201.5,202.5C 198.995,203.126 196.662,203.126 194.5,202.5C 191.951,202.387 189.618,203.054 187.5,204.5C 186.833,203.833 186.167,203.167 185.5,202.5C 184.583,203.127 183.583,203.461 182.5,203.5C 179.91,202.748 177.41,201.748 175,200.5C 172.6,200.802 170.434,201.468 168.5,202.5C 166.097,202.393 164.264,203.393 163,205.5C 160.056,201.886 156.223,200.553 151.5,201.5C 151.795,199.265 151.461,197.265 150.5,195.5C 149.081,194.549 147.415,194.216 145.5,194.5C 144.033,197.258 143.367,196.925 143.5,193.5C 145.864,192.471 148.197,192.471 150.5,193.5C 152.833,193.167 153.167,192.167 151.5,190.5C 152.5,189.833 153.5,189.167 154.5,188.5C 151.893,187.682 149.226,187.182 146.5,187C 147.458,185.853 147.125,184.853 145.5,184C 143.5,183.667 141.5,183.333 139.5,183C 140.711,182.107 140.711,181.274 139.5,180.5C 136.357,184.593 132.691,185.26 128.5,182.5C 120.202,183.44 111.869,183.774 103.5,183.5C 103.5,183.167 103.5,182.833 103.5,182.5C 111.271,180.845 119.271,180.178 127.5,180.5C 131.329,181.069 134.663,180.402 137.5,178.5 Z"/></g>
<g><path style="opacity:1" fill="#9e0c0f" d="M 145.5,194.5 C 145.328,195.492 145.662,196.158 146.5,196.5C 146.5,203.167 146.5,209.833 146.5,216.5C 141.508,217.508 139.508,215.508 140.5,210.5C 140.676,208.215 141.343,206.215 142.5,204.5C 142.548,203.493 141.548,203.16 139.5,203.5C 139.715,201.821 139.048,200.821 137.5,200.5C 135.906,200.92 134.406,201.586 133,202.5C 128.458,201.853 123.958,201.52 119.5,201.5C 118.5,201.667 117.5,201.833 116.5,202C 115.262,202.69 115.262,203.19 116.5,203.5C 116.833,204.167 117.167,204.833 117.5,205.5C 116.834,209.021 116.167,212.687 115.5,216.5C 115.167,216.333 114.833,216.167 114.5,216C 111.935,210.535 109.601,205.035 107.5,199.5C 106.521,198.235 105.521,196.901 104.5,195.5C 102.599,197.728 101.599,200.395 101.5,203.5C 101.167,203.5 100.833,203.5 100.5,203.5C 99.3569,203.908 98.3569,204.575 97.5,205.5C 96.487,209.959 94.6537,213.959 92,217.5C 88.5788,217.19 86.0788,215.524 84.5,212.5C 83.1667,213.167 81.8333,213.833 80.5,214.5C 78.5959,210.556 77.5959,210.89 77.5,215.5C 76.2521,214.666 75.5854,213.333 75.5,211.5C 76.8889,208.493 78.2222,205.493 79.5,202.5C 77.8333,202.5 76.1667,202.5 74.5,202.5C 74.5,201.833 74.5,201.167 74.5,200.5C 74.5299,199.503 74.0299,198.836 73,198.5C 71.6315,199.703 70.1315,200.703 68.5,201.5C 67.8302,199.709 67.1635,198.042 66.5,196.5C 65.4324,195.566 64.099,195.232 62.5,195.5C 59.6447,194.197 56.6447,194.197 53.5,195.5C 50.9508,199.048 50.9508,202.381 53.5,205.5C 55.8957,207.138 58.5624,208.304 61.5,209C 66.1911,214.066 65.1911,217.232 58.5,218.5C 57.5,218.333 56.5,218.167 55.5,218C 54.1498,216.282 52.9832,214.448 52,212.5C 50.8603,215.528 51.6936,217.695 54.5,219C 57.146,219.497 59.8127,219.664 62.5,219.5C 62.8966,220.525 63.5632,220.692 64.5,220C 66.6166,218.269 68.1166,216.102 69,213.5C 69.5946,214.899 69.4279,216.232 68.5,217.5C 71.6757,220.574 75.3423,221.241 79.5,219.5C 83.0169,222.414 85.6836,221.747 87.5,217.5C 89.0541,218.693 90.7208,219.86 92.5,221C 91.6919,221.308 91.0253,221.808 90.5,222.5C 91.0016,223.716 91.3349,224.883 91.5,226C 88.8146,228.633 86.148,228.8 83.5,226.5C 79.1833,228.312 77.5167,231.645 78.5,236.5C 81.3725,236.802 84.0392,237.469 86.5,238.5C 84.0484,238.579 81.5484,238.579 79,238.5C 77.6057,239.613 76.439,240.947 75.5,242.5C 72.3843,244.009 69.7176,243.509 67.5,241C 64.8832,240.178 62.2165,239.678 59.5,239.5C 58.8333,239.5 58.5,239.167 58.5,238.5C 55.3998,235.222 52.3998,231.722 49.5,228C 49.6448,227.228 49.9781,226.561 50.5,226C 48.5,225.667 46.5,225.333 44.5,225C 40.4198,223.423 37.4198,220.59 35.5,216.5C 34.3112,215.571 32.9778,215.238 31.5,215.5C 29.9211,212.67 28.5878,209.67 27.5,206.5C 28.1404,203.352 29.1404,203.019 30.5,205.5C 30.8333,205.167 31.1667,204.833 31.5,204.5C 30.4037,199.566 29.0703,199.566 27.5,204.5C 24.0347,204.649 22.0347,202.982 21.5,199.5C 22.09,198.201 23.09,197.368 24.5,197C 45.3556,192.353 66.3556,188.353 87.5,185C 88.4158,184.722 89.0825,184.222 89.5,183.5C 90.5,183.5 91.5,183.5 92.5,183.5C 96.1667,183.5 99.8333,183.5 103.5,183.5C 111.869,183.774 120.202,183.44 128.5,182.5C 132.691,185.26 136.357,184.593 139.5,180.5C 140.711,181.274 140.711,182.107 139.5,183C 141.5,183.333 143.5,183.667 145.5,184C 147.125,184.853 147.458,185.853 146.5,187C 149.226,187.182 151.893,187.682 154.5,188.5C 153.5,189.167 152.5,189.833 151.5,190.5C 153.167,192.167 152.833,193.167 150.5,193.5C 148.197,192.471 145.864,192.471 143.5,193.5C 143.367,196.925 144.033,197.258 145.5,194.5 Z"/></g>
<g><path style="opacity:1" fill="#c09578" d="M 234.5,181.5 C 233.773,183.954 232.773,186.287 231.5,188.5C 229.901,188.768 228.568,188.434 227.5,187.5C 228.822,187.67 229.989,187.337 231,186.5C 232.651,184.598 232.984,182.598 232,180.5C 232.671,181.252 233.504,181.586 234.5,181.5 Z"/></g>
<g><path style="opacity:0.29" fill="#4d4e4b" d="M 247.5,184.5 C 247.34,186.153 246.674,187.486 245.5,188.5C 245.229,186.62 245.896,185.287 247.5,184.5 Z"/></g>
<g><path style="opacity:0.137" fill="#454545" d="M 12.5,186.5 C 13.6737,187.514 14.3404,188.847 14.5,190.5C 12.8958,189.713 12.2291,188.38 12.5,186.5 Z"/></g>
<g><path style="opacity:1" fill="#95755a" d="M 23.5,183.5 C 25.588,185.336 26.9213,187.669 27.5,190.5C 25.412,188.664 24.0787,186.331 23.5,183.5 Z"/></g>
<g><path style="opacity:1" fill="#9f0b10" d="M 231.5,189.5 C 234.569,191.17 237.903,192.503 241.5,193.5C 239.914,195.173 239.247,197.173 239.5,199.5C 235.642,200.701 233.642,203.367 233.5,207.5C 229.398,209.266 226.731,212.266 225.5,216.5C 224.5,216.5 223.5,216.5 222.5,216.5C 222.5,217.5 222.5,218.5 222.5,219.5C 220.217,219.608 218.217,220.441 216.5,222C 214.205,224.97 211.872,227.97 209.5,231C 206.321,231.752 203.654,233.252 201.5,235.5C 200.127,235.657 198.793,235.49 197.5,235C 197.167,234 196.833,233 196.5,232C 194.973,230.632 193.473,230.132 192,230.5C 191.768,232.283 192.268,233.95 193.5,235.5C 193.182,236.647 192.516,237.481 191.5,238C 192.308,238.308 192.975,238.808 193.5,239.5C 191.833,240.666 190.166,240.666 188.5,239.5C 187.778,239.082 187.278,238.416 187,237.5C 186.667,237.833 186.333,238.167 186,238.5C 185.394,235.924 185.894,233.59 187.5,231.5C 186.626,228.469 184.959,227.469 182.5,228.5C 179.988,227.201 177.321,226.201 174.5,225.5C 173.38,226.833 172.047,227.333 170.5,227C 171.036,225.256 171.37,223.423 171.5,221.5C 173.021,221.88 174.687,222.046 176.5,222C 177.333,222.833 178.167,223.667 179,224.5C 179.118,221.629 179.784,218.962 181,216.5C 181.464,217.094 181.631,217.761 181.5,218.5C 181.5,219.167 181.833,219.5 182.5,219.5C 182.34,221.199 182.506,222.866 183,224.5C 185,223.167 187,223.167 189,224.5C 189.219,223.062 189.719,221.729 190.5,220.5C 192.854,221.06 195.187,221.727 197.5,222.5C 195.469,224.249 195.135,226.249 196.5,228.5C 199.106,229.652 201.773,229.818 204.5,229C 208.454,221.095 212.121,213.095 215.5,205C 215.272,204.601 214.938,204.435 214.5,204.5C 214.672,203.508 214.338,202.842 213.5,202.5C 209.459,201.769 206.292,200.436 204,198.5C 201.872,195.176 201.039,191.509 201.5,187.5C 211.559,187.42 221.559,188.087 231.5,189.5 Z"/></g>
<g><path style="opacity:0.69" fill="#705f61" d="M 14.5,191.5 C 16.2911,193.413 18.2911,195.08 20.5,196.5C 20.1583,197.338 19.4916,197.672 18.5,197.5C 16.684,195.882 15.3507,193.882 14.5,191.5 Z"/></g>
<g><path style="opacity:1" fill="#7a1b1a" d="M 231.5,189.5 C 235.857,189.586 240.19,189.92 244.5,190.5C 243.59,193.992 241.924,196.992 239.5,199.5C 239.247,197.173 239.914,195.173 241.5,193.5C 237.903,192.503 234.569,191.17 231.5,189.5 Z"/></g>
<g><path style="opacity:1" fill="#f4beaf" d="M 62.5,195.5 C 64.099,195.232 65.4324,195.566 66.5,196.5C 66.762,197.978 66.4287,199.311 65.5,200.5C 64.5091,198.677 63.1757,197.177 61.5,196C 61.7284,195.601 62.0618,195.435 62.5,195.5 Z"/></g>
<g><path style="opacity:1" fill="#86201a" d="M 146.5,196.5 C 147.492,203.648 147.825,210.981 147.5,218.5C 146.508,218.328 145.842,218.662 145.5,219.5C 144.508,219.328 143.842,219.662 143.5,220.5C 140.788,221.99 138.288,221.656 136,219.5C 135.501,214.845 135.334,210.179 135.5,205.5C 134.5,205.5 133.5,205.5 132.5,205.5C 132.5,209.5 132.5,213.5 132.5,217.5C 132.167,217.5 131.833,217.5 131.5,217.5C 131.666,213.154 131.499,208.821 131,204.5C 129.102,202.316 126.936,201.983 124.5,203.5C 123.609,204.11 122.609,204.443 121.5,204.5C 121.631,203.624 121.298,202.957 120.5,202.5C 119.264,203.246 117.93,203.579 116.5,203.5C 115.262,203.19 115.262,202.69 116.5,202C 117.5,201.833 118.5,201.667 119.5,201.5C 123.958,201.52 128.458,201.853 133,202.5C 134.406,201.586 135.906,200.92 137.5,200.5C 136.71,201.794 135.71,202.961 134.5,204C 136.239,208.192 137.072,212.692 137,217.5C 139.024,219.884 141.191,220.051 143.5,218C 142.207,217.51 140.873,217.343 139.5,217.5C 139.5,213.167 139.5,208.833 139.5,204.5C 140.5,204.5 141.5,204.5 142.5,204.5C 141.343,206.215 140.676,208.215 140.5,210.5C 139.508,215.508 141.508,217.508 146.5,216.5C 146.5,209.833 146.5,203.167 146.5,196.5 Z"/></g>
<g><path style="opacity:0.631" fill="#690c14" d="M 239.5,199.5 C 237.975,202.563 235.975,205.23 233.5,207.5C 233.642,203.367 235.642,200.701 239.5,199.5 Z"/></g>
<g><path style="opacity:1" fill="#821514" d="M 89.5,183.5 C 89.0825,184.222 88.4158,184.722 87.5,185C 66.3556,188.353 45.3556,192.353 24.5,197C 23.09,197.368 22.09,198.201 21.5,199.5C 22.0347,202.982 24.0347,204.649 27.5,204.5C 29.0703,199.566 30.4037,199.566 31.5,204.5C 31.1667,204.833 30.8333,205.167 30.5,205.5C 29.1404,203.019 28.1404,203.352 27.5,206.5C 28.5878,209.67 29.9211,212.67 31.5,215.5C 25.6998,210.569 21.3664,204.569 18.5,197.5C 19.4916,197.672 20.1583,197.338 20.5,196.5C 23.2666,196.142 25.9333,195.475 28.5,194.5C 32.4456,194.118 36.1122,193.118 39.5,191.5C 45.1771,191.622 50.5105,190.622 55.5,188.5C 66.8094,186.67 78.1427,185.003 89.5,183.5 Z"/></g>
<g><path style="opacity:1" fill="#ed8981" d="M 213.5,202.5 C 214.338,202.842 214.672,203.508 214.5,204.5C 212.726,205.37 211.393,206.703 210.5,208.5C 210.672,206.508 210.005,204.842 208.5,203.5C 210.045,202.548 211.712,202.215 213.5,202.5 Z"/></g>
<g><path style="opacity:1" fill="#cf8079" d="M 124.5,203.5 C 125.5,204.167 126.5,204.833 127.5,205.5C 125.379,205.325 123.379,205.659 121.5,206.5C 121.5,205.833 121.5,205.167 121.5,204.5C 122.609,204.443 123.609,204.11 124.5,203.5 Z"/></g>
<g><path style="opacity:1" fill="#830e0d" d="M 105.5,207.5 C 103.801,207.66 102.134,207.494 100.5,207C 101.337,205.989 101.67,204.822 101.5,203.5C 102.222,203.082 102.722,202.416 103,201.5C 104.319,203.287 105.152,205.287 105.5,207.5 Z"/></g>
<g><path style="opacity:1" fill="#feebd8" d="M 131.5,217.5 C 131.44,218.043 131.107,218.376 130.5,218.5C 129.833,214.018 129.166,209.684 128.5,205.5C 128.167,205.5 127.833,205.5 127.5,205.5C 126.5,204.833 125.5,204.167 124.5,203.5C 126.936,201.983 129.102,202.316 131,204.5C 131.499,208.821 131.666,213.154 131.5,217.5 Z"/></g>
<g><path style="opacity:1" fill="#9b3930" d="M 194.5,202.5 C 196.662,203.126 198.995,203.126 201.5,202.5C 202.833,202.833 204.167,203.167 205.5,203.5C 205.043,204.298 204.376,204.631 203.5,204.5C 202.399,203.402 201.066,203.235 199.5,204C 200.464,205.725 201.131,207.559 201.5,209.5C 200.21,208.942 199.377,207.942 199,206.5C 197.585,209.958 197.085,213.625 197.5,217.5C 197.167,217.5 196.833,217.5 196.5,217.5C 196.666,213.154 196.499,208.821 196,204.5C 195.283,203.956 194.783,203.289 194.5,202.5 Z"/></g>
<g><path style="opacity:1" fill="#fcdfcd" d="M 145.5,194.5 C 147.415,194.216 149.081,194.549 150.5,195.5C 150.183,198.572 150.516,201.572 151.5,204.5C 154.451,202.032 157.284,202.032 160,204.5C 160.499,208.821 160.666,213.154 160.5,217.5C 159.791,218.404 158.791,218.737 157.5,218.5C 157.5,214.167 157.5,209.833 157.5,205.5C 155.05,205.298 152.717,205.631 150.5,206.5C 150.131,210.768 149.131,214.768 147.5,218.5C 147.825,210.981 147.492,203.648 146.5,196.5C 145.662,196.158 145.328,195.492 145.5,194.5 Z"/></g>
<g><path style="opacity:1" fill="#f9b1a8" d="M 150.5,206.5 C 149.945,210.997 150.611,215.164 152.5,219C 150.19,219.497 147.857,219.663 145.5,219.5C 145.842,218.662 146.508,218.328 147.5,218.5C 149.131,214.768 150.131,210.768 150.5,206.5 Z"/></g>
<g><path style="opacity:1" fill="#821914" d="M 150.5,195.5 C 151.461,197.265 151.795,199.265 151.5,201.5C 156.223,200.553 160.056,201.886 163,205.5C 164.264,203.393 166.097,202.393 168.5,202.5C 161.923,208.088 161.923,213.754 168.5,219.5C 168.565,219.938 168.399,220.272 168,220.5C 164.741,219.283 162.741,216.95 162,213.5C 161.938,215.115 161.771,216.448 161.5,217.5C 161.167,217.5 160.833,217.5 160.5,217.5C 160.666,213.154 160.499,208.821 160,204.5C 157.284,202.032 154.451,202.032 151.5,204.5C 150.516,201.572 150.183,198.572 150.5,195.5 Z"/></g>
<g><path style="opacity:1" fill="#fce3d2" d="M 194.5,202.5 C 194.783,203.289 195.283,203.956 196,204.5C 196.499,208.821 196.666,213.154 196.5,217.5C 196.44,218.043 196.107,218.376 195.5,218.5C 194.833,214.018 194.166,209.684 193.5,205.5C 191.311,204.592 189.144,204.925 187,206.5C 186.501,210.152 186.335,213.818 186.5,217.5C 185.791,218.404 184.791,218.737 183.5,218.5C 183.779,213.405 183.445,208.405 182.5,203.5C 183.583,203.461 184.583,203.127 185.5,202.5C 186.167,203.167 186.833,203.833 187.5,204.5C 189.618,203.054 191.951,202.387 194.5,202.5 Z"/></g>
<g><path style="opacity:1" fill="#f8d1c1" d="M 62.5,219.5 C 59.8127,219.664 57.146,219.497 54.5,219C 51.6936,217.695 50.8603,215.528 52,212.5C 52.9832,214.448 54.1498,216.282 55.5,218C 56.5,218.167 57.5,218.333 58.5,218.5C 65.1911,217.232 66.1911,214.066 61.5,209C 58.5624,208.304 55.8957,207.138 53.5,205.5C 52.137,202.786 52.3037,200.119 54,197.5C 55.1332,195.789 56.6332,195.289 58.5,196C 55.6936,197.305 54.8603,199.472 56,202.5C 59.2434,203.945 62.4101,205.611 65.5,207.5C 68.2228,212.346 67.2228,216.346 62.5,219.5 Z"/></g>
<g><path style="opacity:1" fill="#f8dcc9" d="M 74.5,200.5 C 74.5,201.167 74.5,201.833 74.5,202.5C 75.6085,203.29 76.9419,203.79 78.5,204C 77.2068,204.49 75.8734,204.657 74.5,204.5C 74.5,208.833 74.5,213.167 74.5,217.5C 78.3154,217.712 78.3154,218.378 74.5,219.5C 73.5581,219.392 72.7247,219.059 72,218.5C 71.5008,213.845 71.3342,209.179 71.5,204.5C 70.448,204.649 69.448,204.483 68.5,204C 70.3911,202.558 72.3911,201.391 74.5,200.5 Z"/></g>
<g><path style="opacity:1" fill="#ed8e86" d="M 100.5,203.5 C 100.833,203.5 101.167,203.5 101.5,203.5C 101.67,204.822 101.337,205.989 100.5,207C 102.134,207.494 103.801,207.66 105.5,207.5C 105.5,208.167 105.5,208.833 105.5,209.5C 103.5,209.5 101.5,209.5 99.5,209.5C 99.2437,211.937 98.5771,214.271 97.5,216.5C 98.5,217.333 99.5,218.167 100.5,219C 97.8333,219.667 95.1667,219.667 92.5,219C 96.8321,214.84 99.4988,209.673 100.5,203.5 Z"/></g>
<g><path style="opacity:1" fill="#fae1ce" d="M 203.5,204.5 C 204.85,207.572 206.183,210.572 207.5,213.5C 207.5,214.167 207.833,214.5 208.5,214.5C 207.766,215.708 207.433,217.041 207.5,218.5C 206.833,218.5 206.167,218.5 205.5,218.5C 204.958,215.088 203.625,212.088 201.5,209.5C 201.131,207.559 200.464,205.725 199.5,204C 201.066,203.235 202.399,203.402 203.5,204.5 Z"/></g>
<g><path style="opacity:1" fill="#8e1b15" d="M 62.5,195.5 C 62.0618,195.435 61.7284,195.601 61.5,196C 63.1757,197.177 64.5091,198.677 65.5,200.5C 66.4287,199.311 66.762,197.978 66.5,196.5C 67.1635,198.042 67.8302,199.709 68.5,201.5C 70.1315,200.703 71.6315,199.703 73,198.5C 74.0299,198.836 74.5299,199.503 74.5,200.5C 72.3911,201.391 70.3911,202.558 68.5,204C 69.448,204.483 70.448,204.649 71.5,204.5C 71.3342,209.179 71.5008,213.845 72,218.5C 72.7247,219.059 73.5581,219.392 74.5,219.5C 78.3154,218.378 78.3154,217.712 74.5,217.5C 74.5,213.167 74.5,208.833 74.5,204.5C 75.8734,204.657 77.2068,204.49 78.5,204C 76.9419,203.79 75.6085,203.29 74.5,202.5C 76.1667,202.5 77.8333,202.5 79.5,202.5C 78.2222,205.493 76.8889,208.493 75.5,211.5C 75.5854,213.333 76.2521,214.666 77.5,215.5C 78.8333,215.5 80.1667,215.5 81.5,215.5C 81.5,216.833 81.5,218.167 81.5,219.5C 83.3797,219.771 84.713,219.104 85.5,217.5C 86.1667,217.5 86.8333,217.5 87.5,217.5C 85.6836,221.747 83.0169,222.414 79.5,219.5C 75.3423,221.241 71.6757,220.574 68.5,217.5C 69.4279,216.232 69.5946,214.899 69,213.5C 68.1166,216.102 66.6166,218.269 64.5,220C 63.5632,220.692 62.8966,220.525 62.5,219.5C 67.2228,216.346 68.2228,212.346 65.5,207.5C 62.4101,205.611 59.2434,203.945 56,202.5C 54.8603,199.472 55.6936,197.305 58.5,196C 56.6332,195.289 55.1332,195.789 54,197.5C 52.3037,200.119 52.137,202.786 53.5,205.5C 50.9508,202.381 50.9508,199.048 53.5,195.5C 56.6447,194.197 59.6447,194.197 62.5,195.5 Z"/></g>
<g><path style="opacity:1" fill="#fde0d0" d="M 121.5,204.5 C 121.5,205.167 121.5,205.833 121.5,206.5C 121.5,210.5 121.5,214.5 121.5,218.5C 120.5,218.5 119.5,218.5 118.5,218.5C 118.818,213.968 118.485,209.634 117.5,205.5C 117.167,204.833 116.833,204.167 116.5,203.5C 117.93,203.579 119.264,203.246 120.5,202.5C 121.298,202.957 121.631,203.624 121.5,204.5 Z"/></g>
<g><path style="opacity:1" fill="#f8dcc9" d="M 107.5,199.5 C 108.579,205.66 110.246,211.66 112.5,217.5C 111.791,218.404 110.791,218.737 109.5,218.5C 109.737,217.209 109.404,216.209 108.5,215.5C 108.379,212.895 107.379,210.895 105.5,209.5C 105.5,208.833 105.5,208.167 105.5,207.5C 105.152,205.287 104.319,203.287 103,201.5C 102.722,202.416 102.222,203.082 101.5,203.5C 101.599,200.395 102.599,197.728 104.5,195.5C 105.521,196.901 106.521,198.235 107.5,199.5 Z"/></g>
<g><path style="opacity:1" fill="#fbd6c4" d="M 168.5,202.5 C 174.926,201.601 178.926,204.268 180.5,210.5C 179.347,217.322 175.347,220.322 168.5,219.5C 161.923,213.754 161.923,208.088 168.5,202.5 Z"/></g>
<g><path style="opacity:1" fill="#7c1b15" d="M 170.5,204.5 C 172.377,203.375 174.21,203.709 176,205.5C 176.667,209.167 176.667,212.833 176,216.5C 173.333,219.167 170.667,219.167 168,216.5C 167.333,213.167 167.333,209.833 168,206.5C 168.417,205.244 169.25,204.577 170.5,204.5 Z"/></g>
<g><path style="opacity:1" fill="#9f0b12" d="M 170.5,204.5 C 172.17,204.751 173.67,205.418 175,206.5C 175.667,209.5 175.667,212.5 175,215.5C 173.112,217.922 171.112,217.922 169,215.5C 168.116,211.567 168.616,207.901 170.5,204.5 Z"/></g>
<g><path style="opacity:1" fill="#fde0d0" d="M 137.5,200.5 C 139.048,200.821 139.715,201.821 139.5,203.5C 141.548,203.16 142.548,203.493 142.5,204.5C 141.5,204.5 140.5,204.5 139.5,204.5C 139.5,208.833 139.5,213.167 139.5,217.5C 140.873,217.343 142.207,217.51 143.5,218C 141.191,220.051 139.024,219.884 137,217.5C 137.072,212.692 136.239,208.192 134.5,204C 135.71,202.961 136.71,201.794 137.5,200.5 Z"/></g>
<g><path style="opacity:1" fill="#f9d3c1" d="M 81.5,215.5 C 83.3797,215.229 84.713,215.896 85.5,217.5C 84.713,219.104 83.3797,219.771 81.5,219.5C 81.5,218.167 81.5,216.833 81.5,215.5 Z"/></g>
<g><path style="opacity:1" fill="#831813" d="M 107.5,199.5 C 109.601,205.035 111.935,210.535 114.5,216C 114.833,216.167 115.167,216.333 115.5,216.5C 116.167,212.687 116.834,209.021 117.5,205.5C 118.485,209.634 118.818,213.968 118.5,218.5C 116.379,218.675 114.379,218.341 112.5,217.5C 110.246,211.66 108.579,205.66 107.5,199.5 Z"/></g>
<g><path style="opacity:0.827" fill="#710d15" d="M 233.5,207.5 C 223.643,222.027 210.976,233.36 195.5,241.5C 197.424,239.515 199.424,237.515 201.5,235.5C 203.654,233.252 206.321,231.752 209.5,231C 211.872,227.97 214.205,224.97 216.5,222C 218.217,220.441 220.217,219.608 222.5,219.5C 222.5,218.5 222.5,217.5 222.5,216.5C 223.5,216.5 224.5,216.5 225.5,216.5C 226.731,212.266 229.398,209.266 233.5,207.5 Z"/></g>
<g><path style="opacity:1" fill="#e79a8e" d="M 128.5,205.5 C 129.166,209.684 129.833,214.018 130.5,218.5C 131.107,218.376 131.44,218.043 131.5,217.5C 131.833,217.5 132.167,217.5 132.5,217.5C 132.833,218.167 133.167,218.833 133.5,219.5C 131.143,219.663 128.81,219.497 126.5,219C 127,218.5 127.5,218 128,217.5C 128.499,213.514 128.666,209.514 128.5,205.5 Z"/></g>
<g><path style="opacity:1" fill="#e18c82" d="M 186.5,217.5 C 187.289,217.783 187.956,218.283 188.5,219C 186.527,219.495 184.527,219.662 182.5,219.5C 181.833,219.5 181.5,219.167 181.5,218.5C 182.167,218.5 182.833,218.5 183.5,218.5C 184.791,218.737 185.791,218.404 186.5,217.5 Z"/></g>
<g><path style="opacity:1" fill="#941211" d="M 193.5,205.5 C 194.065,210.322 193.399,214.822 191.5,219C 194.167,219.667 196.833,219.667 199.5,219C 198.584,218.722 197.918,218.222 197.5,217.5C 197.085,213.625 197.585,209.958 199,206.5C 199.377,207.942 200.21,208.942 201.5,209.5C 203.625,212.088 204.958,215.088 205.5,218.5C 205.313,220.564 204.813,222.564 204,224.5C 203.329,225.252 202.496,225.586 201.5,225.5C 200.325,225.281 199.325,225.614 198.5,226.5C 199.32,228.111 200.654,228.778 202.5,228.5C 205.209,225.749 206.875,222.416 207.5,218.5C 207.433,217.041 207.766,215.708 208.5,214.5C 209.738,212.786 210.405,210.786 210.5,208.5C 211.393,206.703 212.726,205.37 214.5,204.5C 214.938,204.435 215.272,204.601 215.5,205C 212.121,213.095 208.454,221.095 204.5,229C 201.773,229.818 199.106,229.652 196.5,228.5C 195.135,226.249 195.469,224.249 197.5,222.5C 195.187,221.727 192.854,221.06 190.5,220.5C 189.719,221.729 189.219,223.062 189,224.5C 187,223.167 185,223.167 183,224.5C 182.506,222.866 182.34,221.199 182.5,219.5C 184.527,219.662 186.527,219.495 188.5,219C 187.956,218.283 187.289,217.783 186.5,217.5C 186.335,213.818 186.501,210.152 187,206.5C 189.144,204.925 191.311,204.592 193.5,205.5 Z"/></g>
<g><path style="opacity:1" fill="#e8867d" d="M 205.5,218.5 C 206.167,218.5 206.833,218.5 207.5,218.5C 206.875,222.416 205.209,225.749 202.5,228.5C 202.443,227.391 202.11,226.391 201.5,225.5C 202.496,225.586 203.329,225.252 204,224.5C 204.813,222.564 205.313,220.564 205.5,218.5 Z"/></g>
<g><path style="opacity:1" fill="#e28f82" d="M 193.5,205.5 C 194.166,209.684 194.833,214.018 195.5,218.5C 196.107,218.376 196.44,218.043 196.5,217.5C 196.833,217.5 197.167,217.5 197.5,217.5C 197.918,218.222 198.584,218.722 199.5,219C 196.833,219.667 194.167,219.667 191.5,219C 193.399,214.822 194.065,210.322 193.5,205.5 Z"/></g>
<g><path style="opacity:1" fill="#ee8f8a" d="M 210.5,208.5 C 210.405,210.786 209.738,212.786 208.5,214.5C 207.833,214.5 207.5,214.167 207.5,213.5C 208.313,211.739 209.313,210.072 210.5,208.5 Z"/></g>
<g><path style="opacity:1" fill="#840d13" d="M 31.5,215.5 C 32.9778,215.238 34.3112,215.571 35.5,216.5C 37.4198,220.59 40.4198,223.423 44.5,225C 46.5,225.333 48.5,225.667 50.5,226C 49.9781,226.561 49.6448,227.228 49.5,228C 52.3998,231.722 55.3998,235.222 58.5,238.5C 48.0253,232.702 39.0253,225.035 31.5,215.5 Z"/></g>
<g><path style="opacity:1" fill="#961010" d="M 100.5,203.5 C 99.4988,209.673 96.8321,214.84 92.5,219C 95.1667,219.667 97.8333,219.667 100.5,219C 99.5,218.167 98.5,217.333 97.5,216.5C 98.5771,214.271 99.2437,211.937 99.5,209.5C 101.5,209.5 103.5,209.5 105.5,209.5C 107.379,210.895 108.379,212.895 108.5,215.5C 108.063,217.074 107.063,218.241 105.5,219C 112.234,219.814 117.568,219.647 121.5,218.5C 121.5,214.5 121.5,210.5 121.5,206.5C 123.379,205.659 125.379,205.325 127.5,205.5C 127.833,205.5 128.167,205.5 128.5,205.5C 128.666,209.514 128.499,213.514 128,217.5C 127.5,218 127,218.5 126.5,219C 128.81,219.497 131.143,219.663 133.5,219.5C 131.631,221.652 129.131,222.986 126,223.5C 124.588,222.077 123.421,222.244 122.5,224C 125.767,223.937 127.934,225.437 129,228.5C 132.024,225.862 134.857,226.195 137.5,229.5C 136.95,231.657 136.283,233.657 135.5,235.5C 135.631,234.624 135.298,233.957 134.5,233.5C 133.264,234.246 131.93,234.579 130.5,234.5C 129.952,230.205 131.619,228.705 135.5,230C 129.923,227.741 127.923,229.574 129.5,235.5C 128.833,235.5 128.167,235.5 127.5,235.5C 126.833,226.167 126.167,226.167 125.5,235.5C 124.391,236.29 123.058,236.79 121.5,237C 122.654,237.914 122.487,238.747 121,239.5C 120.079,238.292 119.579,236.958 119.5,235.5C 118.783,236.461 117.617,237.461 116,238.5C 114.991,237.342 113.658,236.675 112,236.5C 109.581,237.251 107.247,237.251 105,236.5C 104.055,236.905 103.388,237.572 103,238.5C 102,237.167 101,235.833 100,234.5C 99.6174,235.056 99.1174,235.389 98.5,235.5C 96.9504,236.72 95.2837,236.72 93.5,235.5C 93.0818,232.91 92.0818,230.577 90.5,228.5C 89.0499,229.85 88.3832,231.516 88.5,233.5C 89.791,233.263 90.791,233.596 91.5,234.5C 89.2929,235.13 87.6262,236.464 86.5,238.5C 84.0392,237.469 81.3725,236.802 78.5,236.5C 77.5167,231.645 79.1833,228.312 83.5,226.5C 86.148,228.8 88.8146,228.633 91.5,226C 91.3349,224.883 91.0016,223.716 90.5,222.5C 91.0253,221.808 91.6919,221.308 92.5,221C 90.7208,219.86 89.0541,218.693 87.5,217.5C 86.8333,217.5 86.1667,217.5 85.5,217.5C 84.713,215.896 83.3797,215.229 81.5,215.5C 80.1667,215.5 78.8333,215.5 77.5,215.5C 77.5959,210.89 78.5959,210.556 80.5,214.5C 81.8333,213.833 83.1667,213.167 84.5,212.5C 86.0788,215.524 88.5788,217.19 92,217.5C 94.6537,213.959 96.487,209.959 97.5,205.5C 98.3569,204.575 99.3569,203.908 100.5,203.5 Z"/></g>
<g><path style="opacity:1" fill="#e8877e" d="M 108.5,215.5 C 109.404,216.209 109.737,217.209 109.5,218.5C 110.791,218.737 111.791,218.404 112.5,217.5C 114.379,218.341 116.379,218.675 118.5,218.5C 119.5,218.5 120.5,218.5 121.5,218.5C 117.568,219.647 112.234,219.814 105.5,219C 107.063,218.241 108.063,217.074 108.5,215.5 Z"/></g>
<g><path style="opacity:1" fill="#fee1cd" d="M 201.5,225.5 C 202.11,226.391 202.443,227.391 202.5,228.5C 200.654,228.778 199.32,228.111 198.5,226.5C 199.325,225.614 200.325,225.281 201.5,225.5 Z"/></g>
<g><path style="opacity:1" fill="#fcbbb3" d="M 115.5,229.5 C 114.041,229.433 112.708,229.766 111.5,230.5C 111.62,229.414 112.287,228.747 113.5,228.5C 114.416,228.543 115.083,228.876 115.5,229.5 Z"/></g>
<g><path style="opacity:1" fill="#831e16" d="M 115.5,229.5 C 117.255,233.576 116.088,234.909 112,233.5C 111.517,232.552 111.351,231.552 111.5,230.5C 112.708,229.766 114.041,229.433 115.5,229.5 Z"/></g>
<g><path style="opacity:1" fill="#ffcabf" d="M 119.5,235.5 C 119.338,233.473 119.505,231.473 120,229.5C 120.494,231.134 120.66,232.801 120.5,234.5C 124.172,235.045 123.838,235.378 119.5,235.5 Z"/></g>
<g><path style="opacity:1" fill="#e4877d" d="M 127.5,235.5 C 126.833,235.5 126.167,235.5 125.5,235.5C 126.167,226.167 126.833,226.167 127.5,235.5 Z"/></g>
<g><path style="opacity:1" fill="#ffc9c0" d="M 102.5,228.5 C 103.404,229.209 103.737,230.209 103.5,231.5C 105.451,231.773 106.951,231.107 108,229.5C 108.667,231.167 108.667,232.833 108,234.5C 106.951,232.893 105.451,232.227 103.5,232.5C 103.649,233.552 103.483,234.552 103,235.5C 102.503,233.19 102.337,230.857 102.5,228.5 Z"/></g>
<g><path style="opacity:1" fill="#efb0a1" d="M 93.5,235.5 C 92.8333,235.167 92.1667,234.833 91.5,234.5C 90.791,233.596 89.791,233.263 88.5,233.5C 88.3832,231.516 89.0499,229.85 90.5,228.5C 92.0818,230.577 93.0818,232.91 93.5,235.5 Z"/></g>
<g><path style="opacity:1" fill="#ffbbb5" d="M 98.5,235.5 C 97.9918,233.158 96.9918,230.991 95.5,229C 97.1667,228.333 98.8333,228.333 100.5,229C 98.75,230.754 98.0833,232.921 98.5,235.5 Z"/></g>
<g><path style="opacity:1" fill="#f7a69e" d="M 135.5,235.5 C 133.5,236.833 131.5,236.833 129.5,235.5C 127.923,229.574 129.923,227.741 135.5,230C 131.619,228.705 129.952,230.205 130.5,234.5C 131.93,234.579 133.264,234.246 134.5,233.5C 135.298,233.957 135.631,234.624 135.5,235.5 Z"/></g>
<g><path style="opacity:1" fill="#f9a69f" d="M 81.5,228.5 C 83.4286,228.231 85.0953,228.731 86.5,230C 82.6189,228.705 80.9522,230.205 81.5,234.5C 83.3307,233.948 84.9974,233.948 86.5,234.5C 80.0332,236.204 78.3666,234.204 81.5,228.5 Z"/></g>
<g><path style="opacity:1" fill="#f8afa3" d="M 115.5,229.5 C 117.745,230.828 118.078,232.661 116.5,235C 111.503,236.5 109.837,235 111.5,230.5C 111.351,231.552 111.517,232.552 112,233.5C 116.088,234.909 117.255,233.576 115.5,229.5 Z"/></g>
<g><path style="opacity:1" fill="#9d0b0f" d="M 143.5,220.5 C 144.833,220.5 146.167,220.5 147.5,220.5C 147.907,227.049 148.907,227.049 150.5,220.5C 151.971,221.381 152.804,222.714 153,224.5C 153.219,223.062 153.719,221.729 154.5,220.5C 155.928,222.655 156.261,224.821 155.5,227C 149.977,226.792 144.644,226.625 139.5,226.5C 138.427,229.721 138.427,232.888 139.5,236C 142.758,236.212 145.924,236.712 149,237.5C 150.113,236.695 151.279,236.028 152.5,235.5C 152.833,235.5 153.167,235.5 153.5,235.5C 155.583,236.588 157.749,237.588 160,238.5C 162.045,237.074 164.212,236.074 166.5,235.5C 167.167,235.5 167.833,235.5 168.5,235.5C 166.756,237.606 167.256,238.939 170,239.5C 172.482,237.469 175.148,237.135 178,238.5C 179.333,237.833 180.333,236.833 181,235.5C 181.263,238.704 182.93,240.704 186,241.5C 187.376,241.316 188.209,240.649 188.5,239.5C 190.166,240.666 191.833,240.666 193.5,239.5C 192.975,238.808 192.308,238.308 191.5,238C 192.516,237.481 193.182,236.647 193.5,235.5C 192.268,233.95 191.768,232.283 192,230.5C 193.473,230.132 194.973,230.632 196.5,232C 196.833,233 197.167,234 197.5,235C 198.793,235.49 200.127,235.657 201.5,235.5C 199.424,237.515 197.424,239.515 195.5,241.5C 187.643,242.761 180.977,246.095 175.5,251.5C 168.383,253.763 161.05,254.929 153.5,255C 151.699,255.317 151.366,255.984 152.5,257C 149.008,256.93 146.008,257.763 143.5,259.5C 133.5,259.5 123.5,259.5 113.5,259.5C 108.021,256.352 102.021,255.019 95.5,255.5C 94.209,255.737 93.209,255.404 92.5,254.5C 88.767,252.589 84.767,251.256 80.5,250.5C 73.0506,247.609 66.0506,243.943 59.5,239.5C 62.2165,239.678 64.8832,240.178 67.5,241C 69.7176,243.509 72.3843,244.009 75.5,242.5C 76.439,240.947 77.6057,239.613 79,238.5C 81.5484,238.579 84.0484,238.579 86.5,238.5C 87.6262,236.464 89.2929,235.13 91.5,234.5C 92.1667,234.833 92.8333,235.167 93.5,235.5C 95.2837,236.72 96.9504,236.72 98.5,235.5C 99.1174,235.389 99.6174,235.056 100,234.5C 101,235.833 102,237.167 103,238.5C 103.388,237.572 104.055,236.905 105,236.5C 107.247,237.251 109.581,237.251 112,236.5C 113.658,236.675 114.991,237.342 116,238.5C 117.617,237.461 118.783,236.461 119.5,235.5C 119.579,236.958 120.079,238.292 121,239.5C 122.487,238.747 122.654,237.914 121.5,237C 123.058,236.79 124.391,236.29 125.5,235.5C 126.167,235.5 126.833,235.5 127.5,235.5C 128.167,235.5 128.833,235.5 129.5,235.5C 131.5,236.833 133.5,236.833 135.5,235.5C 136.283,233.657 136.95,231.657 137.5,229.5C 134.857,226.195 132.024,225.862 129,228.5C 127.934,225.437 125.767,223.937 122.5,224C 123.421,222.244 124.588,222.077 126,223.5C 129.131,222.986 131.631,221.652 133.5,219.5C 133.167,218.833 132.833,218.167 132.5,217.5C 132.5,213.5 132.5,209.5 132.5,205.5C 133.5,205.5 134.5,205.5 135.5,205.5C 135.334,210.179 135.501,214.845 136,219.5C 138.288,221.656 140.788,221.99 143.5,220.5 Z"/></g>
<g><path style="opacity:1" fill="#931211" d="M 182.5,203.5 C 183.445,208.405 183.779,213.405 183.5,218.5C 182.833,218.5 182.167,218.5 181.5,218.5C 181.631,217.761 181.464,217.094 181,216.5C 179.784,218.962 179.118,221.629 179,224.5C 178.167,223.667 177.333,222.833 176.5,222C 174.687,222.046 173.021,221.88 171.5,221.5C 171.37,223.423 171.036,225.256 170.5,227C 172.047,227.333 173.38,226.833 174.5,225.5C 177.321,226.201 179.988,227.201 182.5,228.5C 184.959,227.469 186.626,228.469 187.5,231.5C 185.894,233.59 185.394,235.924 186,238.5C 186.333,238.167 186.667,237.833 187,237.5C 187.278,238.416 187.778,239.082 188.5,239.5C 188.209,240.649 187.376,241.316 186,241.5C 182.93,240.704 181.263,238.704 181,235.5C 180.333,236.833 179.333,237.833 178,238.5C 175.148,237.135 172.482,237.469 170,239.5C 167.256,238.939 166.756,237.606 168.5,235.5C 168.223,233.425 167.89,231.425 167.5,229.5C 166.432,228.566 165.099,228.232 163.5,228.5C 163.337,230.857 163.503,233.19 164,235.5C 165.071,232.887 165.905,232.887 166.5,235.5C 164.212,236.074 162.045,237.074 160,238.5C 157.749,237.588 155.583,236.588 153.5,235.5C 153.662,233.473 153.495,231.473 153,229.5C 152.29,230.973 151.124,231.64 149.5,231.5C 148.726,227.556 148.059,227.723 147.5,232C 148.059,236.277 148.726,236.444 149.5,232.5C 150.5,232.5 151.5,232.5 152.5,232.5C 152.5,233.5 152.5,234.5 152.5,235.5C 151.279,236.028 150.113,236.695 149,237.5C 145.924,236.712 142.758,236.212 139.5,236C 138.427,232.888 138.427,229.721 139.5,226.5C 144.644,226.625 149.977,226.792 155.5,227C 156.261,224.821 155.928,222.655 154.5,220.5C 153.719,221.729 153.219,223.062 153,224.5C 152.804,222.714 151.971,221.381 150.5,220.5C 148.907,227.049 147.907,227.049 147.5,220.5C 146.167,220.5 144.833,220.5 143.5,220.5C 143.842,219.662 144.508,219.328 145.5,219.5C 147.857,219.663 150.19,219.497 152.5,219C 150.611,215.164 149.945,210.997 150.5,206.5C 152.717,205.631 155.05,205.298 157.5,205.5C 157.5,209.833 157.5,214.167 157.5,218.5C 157.432,219.737 159.099,219.904 162.5,219C 161.944,218.617 161.611,218.117 161.5,217.5C 161.771,216.448 161.938,215.115 162,213.5C 162.741,216.95 164.741,219.283 168,220.5C 168.399,220.272 168.565,219.938 168.5,219.5C 175.347,220.322 179.347,217.322 180.5,210.5C 178.926,204.268 174.926,201.601 168.5,202.5C 170.434,201.468 172.6,200.802 175,200.5C 177.41,201.748 179.91,202.748 182.5,203.5 Z"/></g>
<g><path style="opacity:1" fill="#f8a69e" d="M 155.5,228.5 C 157.308,229.918 157.975,231.918 157.5,234.5C 158.5,234.5 159.5,234.5 160.5,234.5C 160.338,232.473 160.505,230.473 161,228.5C 162.102,231.905 161.268,234.572 158.5,236.5C 155.828,234.575 154.828,231.908 155.5,228.5 Z"/></g>
<g><path style="opacity:1" fill="#fab4af" d="M 171.5,228.5 C 176.041,228.331 176.374,228.998 172.5,230.5C 171.674,231.451 171.508,232.451 172,233.5C 173.652,234.217 175.152,234.55 176.5,234.5C 170.74,236.213 169.074,234.213 171.5,228.5 Z"/></g>
<g><path style="opacity:1" fill="#fbbfb5" d="M 167.5,229.5 C 167.89,231.425 168.223,233.425 168.5,235.5C 167.833,235.5 167.167,235.5 166.5,235.5C 165.905,232.887 165.071,232.887 164,235.5C 163.503,233.19 163.337,230.857 163.5,228.5C 165.099,228.232 166.432,228.566 167.5,229.5 Z"/></g>
<g><path style="opacity:1" fill="#f9b6a9" d="M 153.5,235.5 C 153.167,235.5 152.833,235.5 152.5,235.5C 152.5,234.5 152.5,233.5 152.5,232.5C 151.5,232.5 150.5,232.5 149.5,232.5C 148.726,236.444 148.059,236.277 147.5,232C 148.059,227.723 148.726,227.556 149.5,231.5C 151.124,231.64 152.29,230.973 153,229.5C 153.495,231.473 153.662,233.473 153.5,235.5 Z"/></g>
<g><path style="opacity:1" fill="#f7a099" d="M 141.5,228.5 C 143.429,228.231 145.095,228.731 146.5,230C 142.619,228.705 140.952,230.205 141.5,234.5C 143.331,233.948 144.997,233.948 146.5,234.5C 139.606,236.612 137.939,234.612 141.5,228.5 Z"/></g>
<g><path style="opacity:1" fill="#ffc5bb" d="M 178.5,228.5 C 179.404,229.209 179.737,230.209 179.5,231.5C 181.451,231.773 182.951,231.107 184,229.5C 184.622,234.263 184.455,235.263 183.5,232.5C 182.167,232.5 180.833,232.5 179.5,232.5C 179.649,233.552 179.483,234.552 179,235.5C 178.503,233.19 178.337,230.857 178.5,228.5 Z"/></g>
<g><path style="opacity:1" fill="#6a2723" d="M 167.5,229.5 C 167.157,231.225 166.157,231.725 164.5,231C 165.244,229.961 166.244,229.461 167.5,229.5 Z"/></g>
<g><path style="opacity:1" fill="#e48d80" d="M 160.5,217.5 C 160.833,217.5 161.167,217.5 161.5,217.5C 161.611,218.117 161.944,218.617 162.5,219C 159.099,219.904 157.432,219.737 157.5,218.5C 158.791,218.737 159.791,218.404 160.5,217.5 Z"/></g>
<g><path style="opacity:0.875" fill="#6c0b13" d="M 195.5,241.5 C 189.419,245.874 182.752,249.207 175.5,251.5C 180.977,246.095 187.643,242.761 195.5,241.5 Z"/></g>
<g><path style="opacity:0.392" fill="#480708" d="M 80.5,250.5 C 84.767,251.256 88.767,252.589 92.5,254.5C 88.0845,254.139 84.0845,252.806 80.5,250.5 Z"/></g>
<g><path style="opacity:0.824" fill="#5c090f" d="M 95.5,255.5 C 102.021,255.019 108.021,256.352 113.5,259.5C 111.833,259.5 110.167,259.5 108.5,259.5C 104.125,258.323 99.7919,256.989 95.5,255.5 Z"/></g>
<g><path style="opacity:0.976" fill="#630a10" d="M 175.5,251.5 C 167.596,254.475 159.596,257.142 151.5,259.5C 148.833,259.5 146.167,259.5 143.5,259.5C 146.008,257.763 149.008,256.93 152.5,257C 151.366,255.984 151.699,255.317 153.5,255C 161.05,254.929 168.383,253.763 175.5,251.5 Z"/></g>
</svg>
